<?xml version="1.0" encoding="UTF-8"?>
<svg version="1.1" xmlns="http://www.w3.org/2000/svg" width="500" height="500">
<path d="M0 0 C165 0 330 0 500 0 C500 165 500 330 500 500 C335 500 170 500 0 500 C0 335 0 170 0 0 Z " fill="#FCFCFC" transform="translate(0,0)"/>
<path d="M0 0 C1.2065625 0.0309375 1.2065625 0.0309375 2.4375 0.0625 C1.30898257 5.70508715 -1.65390201 8.3722066 -5.6640625 12.1796875 C-7.79468336 14.29277239 -9.19414572 16.39781009 -10.5625 19.0625 C-12.88195359 23.06373262 -15.4327247 26.88604264 -18.0625 30.6875 C-18.45308594 31.25984375 -18.84367187 31.8321875 -19.24609375 32.421875 C-23.16722154 38.09892871 -23.16722154 38.09892871 -25.5625 40.0625 C-26.2225 40.0625 -26.8825 40.0625 -27.5625 40.0625 C-27.75585938 40.66578125 -27.94921875 41.2690625 -28.1484375 41.890625 C-28.53902344 43.08945313 -28.53902344 43.08945313 -28.9375 44.3125 C-29.32035156 45.49585937 -29.32035156 45.49585937 -29.7109375 46.703125 C-30.51423667 48.92877958 -31.45961662 50.97181672 -32.5625 53.0625 C-33.2225 53.0625 -33.8825 53.0625 -34.5625 53.0625 C-34.5625 54.0525 -34.5625 55.0425 -34.5625 56.0625 C-35.2225 56.0625 -35.8825 56.0625 -36.5625 56.0625 C-36.5625 57.0525 -36.5625 58.0425 -36.5625 59.0625 C-37.77486328 59.35253906 -37.77486328 59.35253906 -39.01171875 59.6484375 C-40.08035156 59.90882813 -41.14898437 60.16921875 -42.25 60.4375 C-43.30574219 60.69273437 -44.36148437 60.94796875 -45.44921875 61.2109375 C-48.27177105 61.98297815 -50.85214736 62.9748504 -53.5625 64.0625 C-58.88100289 65.42794765 -64.05153025 66.35255104 -69.5625 66.0625 C-69.5625 66.7225 -69.5625 67.3825 -69.5625 68.0625 C-70.70525391 68.22685547 -70.70525391 68.22685547 -71.87109375 68.39453125 C-76.71766494 69.13876128 -81.38642661 69.86683963 -86 71.5625 C-90.749329 73.29031805 -95.54831688 73.90128113 -100.546875 74.53515625 C-103.54462437 74.94807377 -103.54462437 74.94807377 -106.12109375 76.11328125 C-108.88156216 77.18655137 -110.92809156 77.26608423 -113.875 77.1875 C-114.75800781 77.16945313 -115.64101563 77.15140625 -116.55078125 77.1328125 C-117.21464844 77.10960937 -117.87851562 77.08640625 -118.5625 77.0625 C-118.5625 77.7225 -118.5625 78.3825 -118.5625 79.0625 C-119.75746094 79.35253906 -119.75746094 79.35253906 -120.9765625 79.6484375 C-127.35752215 81.19070611 -127.35752215 81.19070611 -133.625 83.125 C-138.17425923 84.57689124 -142.85889116 85.27577539 -147.5625 86.0625 C-147.5625 86.7225 -147.5625 87.3825 -147.5625 88.0625 C-144.93476649 87.83082048 -142.31191094 87.57759201 -139.6875 87.3125 C-138.96046875 87.250625 -138.2334375 87.18875 -137.484375 87.125 C-133.18942821 86.67290034 -129.66006256 85.78926565 -125.6953125 84.0546875 C-120.26627568 81.74222264 -115.160791 81.26686804 -109.3125 80.9375 C-103.35634347 80.55920357 -98.21844603 80.08603494 -92.5625 78.0625 C-89.7890625 77.8671875 -89.7890625 77.8671875 -87.1875 77.9375 C-86.31351562 77.95554687 -85.43953125 77.97359375 -84.5390625 77.9921875 C-83.88679688 78.01539063 -83.23453125 78.03859375 -82.5625 78.0625 C-82.5625 77.4025 -82.5625 76.7425 -82.5625 76.0625 C-79.47035387 75.34892782 -76.37809532 74.63591198 -73.28515625 73.92578125 C-70.89461927 73.37141748 -68.50634468 72.80715257 -66.12109375 72.23046875 C-59.92184035 70.74469727 -53.916542 69.60097814 -47.5625 69.0625 C-49.05991749 75.5097142 -51.84931533 79.47016622 -56.5625 84.0625 C-57.85769995 86.22870544 -57.85769995 86.22870544 -58.5625 88.0625 C-59.2225 88.0625 -59.8825 88.0625 -60.5625 88.0625 C-60.8925 89.0525 -61.2225 90.0425 -61.5625 91.0625 C-63 92.75 -63 92.75 -64.5625 94.0625 C-65.2225 94.0625 -65.8825 94.0625 -66.5625 94.0625 C-66.871875 94.84625 -67.18125 95.63 -67.5 96.4375 C-68.5625 99.0625 -68.5625 99.0625 -69.5625 101.0625 C-70.2225 101.0625 -70.8825 101.0625 -71.5625 101.0625 C-71.8925 102.0525 -72.2225 103.0425 -72.5625 104.0625 C-74.5425 104.0625 -76.5225 104.0625 -78.5625 104.0625 C-78.5625 104.7225 -78.5625 105.3825 -78.5625 106.0625 C-82.8525 106.0625 -87.1425 106.0625 -91.5625 106.0625 C-91.5625 106.7225 -91.5625 107.3825 -91.5625 108.0625 C-92.26125244 108.17859619 -92.96000488 108.29469238 -93.67993164 108.41430664 C-99.30746241 109.35061491 -104.93380163 110.29346409 -110.55859375 111.24609375 C-124.51543976 113.60216643 -138.47417731 115.86401268 -152.49951172 117.77929688 C-155.52236637 118.19426864 -158.54237038 118.62818043 -161.5625 119.0625 C-161.5625 119.7225 -161.5625 120.3825 -161.5625 121.0625 C-134.44402328 119.5124633 -134.44402328 119.5124633 -107.45703125 116.4921875 C-98.39966706 115.25024379 -89.68947579 114.82645752 -80.5625 115.0625 C-81.2225 116.7125 -81.8825 118.3625 -82.5625 120.0625 C-83.2225 120.0625 -83.8825 120.0625 -84.5625 120.0625 C-84.5625 120.7225 -84.5625 121.3825 -84.5625 122.0625 C-85.2225 122.0625 -85.8825 122.0625 -86.5625 122.0625 C-86.8925 123.7125 -87.2225 125.3625 -87.5625 127.0625 C-88.2225 127.0625 -88.8825 127.0625 -89.5625 127.0625 C-89.60375 127.908125 -89.645 128.75375 -89.6875 129.625 C-90.85698278 134.21939664 -93.31291003 136.7239909 -96.5625 140.0625 C-97.33980469 140.90748047 -97.33980469 140.90748047 -98.1328125 141.76953125 C-99.5625 143.0625 -99.5625 143.0625 -101.5625 143.0625 C-101.665625 143.949375 -101.76875 144.83625 -101.875 145.75 C-102.61030066 149.29281226 -103.29724818 151.24821135 -105.5625 154.0625 C-108.54277039 154.66377258 -108.54277039 154.66377258 -112.23706055 154.63012695 C-112.910495 154.63085709 -113.58392944 154.63158722 -114.277771 154.63233948 C-116.50240816 154.62885752 -118.7249478 154.5899743 -120.94921875 154.55078125 C-122.49191646 154.54145512 -124.03462899 154.53433806 -125.5773468 154.52934265 C-129.63673834 154.51025659 -133.69523456 154.46114337 -137.75427246 154.40582275 C-141.8966053 154.35466408 -146.0390829 154.33183593 -150.18164062 154.30664062 C-158.30900451 154.25302492 -166.43564087 154.16769419 -174.5625 154.0625 C-174.2325 154.7225 -173.9025 155.3825 -173.5625 156.0625 C-173.12294883 159.32404359 -172.74913529 162.58528716 -172.40039062 165.85742188 C-171.87464977 170.43521419 -170.91019741 174.63888145 -169.5625 179.0625 C-169.21314873 180.60061603 -168.87723444 182.14192908 -168.5625 183.6875 C-167.84894326 186.99327457 -166.84745083 189.93043235 -165.5625 193.0625 C-164.34485073 197.1991715 -163.5625 200.71830896 -163.5625 205.0625 C-166.5325 205.0625 -169.5025 205.0625 -172.5625 205.0625 C-172.11025239 210.97742272 -171.4042395 216.41449888 -169.5625 222.0625 C-168.9334375 222.16046875 -168.304375 222.2584375 -167.65625 222.359375 C-163.18937166 223.13973326 -159.43792549 223.95088795 -155.5 226.25 C-151.0738335 228.63744738 -147.33423658 228.47011803 -142.5625 227.0625 C-139.27001892 225.22932624 -139.27001892 225.22932624 -136.5625 223.0625 C-133.78899768 221.47764153 -132.82597266 221.0625 -129.5625 221.0625 C-129.5625 219.4125 -129.5625 217.7625 -129.5625 216.0625 C-130.2225 216.0625 -130.8825 216.0625 -131.5625 216.0625 C-131.5625 215.0725 -131.5625 214.0825 -131.5625 213.0625 C-132.2225 213.0625 -132.8825 213.0625 -133.5625 213.0625 C-133.5625 212.0725 -133.5625 211.0825 -133.5625 210.0625 C-135.0165625 210.0934375 -135.0165625 210.0934375 -136.5 210.125 C-139.5625 210.0625 -139.5625 210.0625 -140.5625 209.0625 C-141.13817808 205.96823033 -141.59276599 202.86198781 -142.0625 199.75 C-142.28345208 197.15293376 -142.28345208 197.15293376 -143.5625 196.0625 C-143.60342937 193.72952567 -143.60491723 191.39544775 -143.5625 189.0625 C-141.5825 189.3925 -139.6025 189.7225 -137.5625 190.0625 C-137.2325 191.0525 -136.9025 192.0425 -136.5625 193.0625 C-134.54741642 193.79573796 -134.54741642 193.79573796 -132.5625 194.0625 C-132.5625 194.7225 -132.5625 195.3825 -132.5625 196.0625 C-131.799375 196.206875 -131.03625 196.35125 -130.25 196.5 C-127.5625 197.0625 -127.5625 197.0625 -124.5625 198.0625 C-124.871875 198.908125 -125.18125 199.75375 -125.5 200.625 C-125.90977512 203.97076575 -125.90977512 203.97076575 -124.24609375 205.84375 C-122.40660121 207.65543164 -120.50876825 209.36646624 -118.5625 211.0625 C-113.5625 216.0625 -113.5625 216.0625 -112.0625 217.6875 C-110.50695801 219.20891604 -110.50695801 219.20891604 -108.125 220.5 C-105.49332798 222.10467806 -103.58334871 223.74226629 -101.5625 226.0625 C-101.5625 226.7225 -101.5625 227.3825 -101.5625 228.0625 C-100.69625 228.4028125 -100.69625 228.4028125 -99.8125 228.75 C-96.910206 230.44300483 -95.37441305 232.24396859 -93.5625 235.0625 C-93.8125 237.375 -93.8125 237.375 -94.5625 239.0625 C-95.5525 239.0625 -96.5425 239.0625 -97.5625 239.0625 C-97.5625 239.7225 -97.5625 240.3825 -97.5625 241.0625 C-98.614375 241.64 -99.66625 242.2175 -100.75 242.8125 C-103.17877365 244.18635176 -105.13026947 245.52703865 -107.3125 247.3125 C-109.5625 249.0625 -109.5625 249.0625 -112.5625 249.0625 C-112.81 249.64 -113.0575 250.2175 -113.3125 250.8125 C-116.54130101 256.62434181 -121.86243668 259.09067211 -127.5625 262.0625 C-127.5625 263.7125 -127.5625 265.3625 -127.5625 267.0625 C-129.45442475 268.04919759 -131.35121978 269.0265602 -133.25 270 C-134.30574219 270.54527344 -135.36148437 271.09054687 -136.44921875 271.65234375 C-139.22484047 272.9095576 -141.56522126 273.62319569 -144.5625 274.0625 C-144.95575819 267.08580843 -144.19346039 261.54593811 -141.5625 255.0625 C-139.5825 255.0625 -137.6025 255.0625 -135.5625 255.0625 C-135.2325 251.7625 -134.9025 248.4625 -134.5625 245.0625 C-136.2125 244.4025 -137.8625 243.7425 -139.5625 243.0625 C-139.5625 242.4025 -139.5625 241.7425 -139.5625 241.0625 C-141.2251783 240.70981066 -142.89315717 240.38216139 -144.5625 240.0625 C-146.2021875 239.7221875 -146.2021875 239.7221875 -147.875 239.375 C-151.63905527 239.05601226 -153.95005879 239.54806019 -157.49609375 240.58203125 C-160.87748191 241.36825194 -164.1047849 241.18598983 -167.5625 241.0625 C-167.5625 241.7225 -167.5625 242.3825 -167.5625 243.0625 C-173.60976766 244.4503975 -179.3518983 245.71624755 -185.5625 245.0625 C-186.21636436 244.07740196 -186.21636436 244.07740196 -186.88343811 243.07240295 C-188.44516613 240.76546854 -188.44516613 240.76546854 -191.43992615 240.5478363 C-192.6114473 240.54163773 -193.78296844 240.53543915 -194.98999023 240.52905273 C-195.63749237 240.52043716 -196.28499451 240.51182159 -196.95211792 240.50294495 C-199.09218341 240.48024515 -201.23094348 240.48703037 -203.37109375 240.49609375 C-204.85938405 240.49085945 -206.34767103 240.48458368 -207.83595276 240.47731018 C-210.95565394 240.46689837 -214.07489923 240.47147748 -217.19458008 240.48608398 C-221.19100826 240.5032644 -225.18599772 240.47979221 -229.18226528 240.44459438 C-232.25614434 240.42262274 -235.32967908 240.42406123 -238.40361214 240.4323597 C-239.87680704 240.43317955 -241.35002714 240.42630954 -242.82314873 240.41158867 C-244.88486701 240.3941465 -246.94400054 240.40867584 -249.00561523 240.43139648 C-250.17793198 240.43235825 -251.35024872 240.43332001 -252.55809021 240.43431091 C-256.45868833 241.24988314 -257.28638991 242.91168094 -259.5625 246.0625 C-263.36419442 246.56461058 -266.07564274 246.20981474 -269.73828125 245.1015625 C-273.9834612 243.94812239 -278.07281106 243.43270623 -282.4375 243 C-290.43401163 242.19098837 -290.43401163 242.19098837 -291.5625 241.0625 C-293.89067964 240.69489269 -296.2243385 240.36008419 -298.5625 240.0625 C-298.4903125 241.01769531 -298.418125 241.97289062 -298.34375 242.95703125 C-297.13830741 259.74951619 -297.13830741 259.74951619 -297.5625 266.0625 C-298.5625 267.0625 -298.5625 267.0625 -300.62890625 267.16015625 C-301.86447266 267.14275391 -301.86447266 267.14275391 -303.125 267.125 C-303.95128906 267.11597656 -304.77757812 267.10695313 -305.62890625 267.09765625 C-306.26699219 267.08605469 -306.90507812 267.07445312 -307.5625 267.0625 C-308.1956684 258.05115693 -308.7348784 249.10278922 -308.5625 240.0625 C-310.6257984 240.12291869 -312.68827414 240.21181638 -314.75 240.3125 C-315.89855469 240.35890625 -317.04710937 240.4053125 -318.23046875 240.453125 C-322.08759433 241.15853132 -323.71581721 242.4351763 -326.5625 245.0625 C-329.89831461 247.31417486 -332.57119802 248.492314 -336.5625 249.0625 C-336.8925 248.0725 -337.2225 247.0825 -337.5625 246.0625 C-339.17125 245.9078125 -339.17125 245.9078125 -340.8125 245.75 C-344.60100803 245.05544019 -345.95973769 244.78230302 -348.5625 242.0625 C-349.79308607 236.84951478 -349.73257054 232.2365734 -348.5625 227.0625 C-345.45199264 223.30441261 -342.04781681 220.95710751 -337.5625 219.0625 C-334.69921875 218.87109375 -334.69921875 218.87109375 -332.5625 219.0625 C-332.5625 219.7225 -332.5625 220.3825 -332.5625 221.0625 C-331.510625 221.4028125 -331.510625 221.4028125 -330.4375 221.75 C-327.5625 223.0625 -327.5625 223.0625 -325.0625 225.625 C-320.48802947 229.24987429 -320.48802947 229.24987429 -308.5625 229.0625 C-308.5625 219.8225 -308.5625 210.5825 -308.5625 201.0625 C-305.9225 201.0625 -303.2825 201.0625 -300.5625 201.0625 C-300.5625 210.3025 -300.5625 219.5425 -300.5625 229.0625 C-292.16116609 229.07762945 -292.16116609 229.07762945 -289.5625 226.0625 C-285.56469942 224.92027126 -281.6975163 224.98142125 -277.5625 225.0625 C-277.5625 224.4025 -277.5625 223.7425 -277.5625 223.0625 C-276.2425 223.0625 -274.9225 223.0625 -273.5625 223.0625 C-273.42972656 222.25425781 -273.29695312 221.44601562 -273.16015625 220.61328125 C-272.98355469 219.54464844 -272.80695313 218.47601563 -272.625 217.375 C-272.45097656 216.31925781 -272.27695312 215.26351562 -272.09765625 214.17578125 C-271.63082879 211.46000396 -271.11827384 208.76125765 -270.5625 206.0625 C-273.8625 206.0625 -277.1625 206.0625 -280.5625 206.0625 C-280.89603362 201.61538501 -280.08241311 198.43640039 -278.421875 194.32421875 C-275.81850433 187.4726205 -274.3043592 180.25251755 -272.9921875 173.05859375 C-272.5625 171.0625 -272.5625 171.0625 -271.5625 169.0625 C-270.9025 169.0625 -270.2425 169.0625 -269.5625 169.0625 C-269.5934375 167.268125 -269.5934375 167.268125 -269.625 165.4375 C-269.68639789 161.87642252 -269.16921069 158.56840609 -268.5625 155.0625 C-269.41440918 155.06773682 -270.26631836 155.07297363 -271.14404297 155.07836914 C-292.97173665 155.19337433 -314.74844524 154.83818419 -336.5625 154.0625 C-336.8925 152.7425 -337.2225 151.4225 -337.5625 150.0625 C-338.2225 150.0625 -338.8825 150.0625 -339.5625 150.0625 C-340.0575 147.5875 -340.0575 147.5875 -340.5625 145.0625 C-341.2225 145.0625 -341.8825 145.0625 -342.5625 145.0625 C-342.5625 144.4025 -342.5625 143.7425 -342.5625 143.0625 C-343.2225 143.0625 -343.8825 143.0625 -344.5625 143.0625 C-346.01123047 141.32177734 -346.01123047 141.32177734 -347.6796875 138.8984375 C-348.28683594 138.02316406 -348.89398438 137.14789063 -349.51953125 136.24609375 C-350.15246094 135.31925781 -350.78539062 134.39242187 -351.4375 133.4375 C-352.37529297 132.08205078 -352.37529297 132.08205078 -353.33203125 130.69921875 C-355.0852701 128.16017306 -356.82453297 125.61201016 -358.5625 123.0625 C-359.00368164 122.42989258 -359.44486328 121.79728516 -359.89941406 121.14550781 C-362.5625 117.28579295 -362.5625 117.28579295 -362.5625 115.0625 C-362.00667236 115.12308594 -361.45084473 115.18367188 -360.87817383 115.24609375 C-352.09075339 116.16763426 -343.28205226 116.72997409 -334.46679688 117.3125 C-333.26474609 117.395 -332.06269531 117.4775 -330.82421875 117.5625 C-329.19939575 117.67078125 -329.19939575 117.67078125 -327.54174805 117.78125 C-324.81537328 118.038628 -322.23975625 118.50457563 -319.5625 119.0625 C-316.9556873 119.28131019 -314.36029811 119.47262853 -311.75 119.625 C-310.71069336 119.68977539 -310.71069336 119.68977539 -309.65039062 119.75585938 C-307.95461314 119.86111453 -306.25857948 119.96222863 -304.5625 120.0625 C-304.5625 120.7225 -304.5625 121.3825 -304.5625 122.0625 C-296.6425 122.0625 -288.7225 122.0625 -280.5625 122.0625 C-280.8925 121.0725 -281.2225 120.0825 -281.5625 119.0625 C-289.21507723 117.68690584 -296.80798194 116.64256237 -304.5625 116.0625 C-304.5625 115.4025 -304.5625 114.7425 -304.5625 114.0625 C-305.24054688 114.08570313 -305.91859375 114.10890625 -306.6171875 114.1328125 C-311.30249803 114.2236634 -315.67088209 114.17811911 -320.25 113.125 C-327.24820814 111.52573363 -334.41466979 111.39949448 -341.5625 111.0625 C-341.5625 110.4025 -341.5625 109.7425 -341.5625 109.0625 C-344.8625 109.0625 -348.1625 109.0625 -351.5625 109.0625 C-351.5625 108.4025 -351.5625 107.7425 -351.5625 107.0625 C-352.52671875 107.07410156 -353.4909375 107.08570313 -354.484375 107.09765625 C-356.37929688 107.11119141 -356.37929688 107.11119141 -358.3125 107.125 C-359.56546875 107.13660156 -360.8184375 107.14820313 -362.109375 107.16015625 C-364.84786501 107.08271027 -366.98130293 106.89030815 -369.5625 106.0625 C-369.5625 105.4025 -369.5625 104.7425 -369.5625 104.0625 C-370.160625 103.98 -370.75875 103.8975 -371.375 103.8125 C-374.21275411 102.83955573 -375.05926067 101.61800687 -376.5625 99.0625 C-376.5625 98.0725 -376.5625 97.0825 -376.5625 96.0625 C-377.2225 96.0625 -377.8825 96.0625 -378.5625 96.0625 C-379.73368301 94.37800252 -380.82492662 92.63754001 -381.875 90.875 C-384.43671561 86.71554076 -387.00032364 83.42677767 -390.5625 80.0625 C-391.59607147 78.41644174 -392.60310332 76.75286558 -393.5625 75.0625 C-394.5525 74.0725 -394.5525 74.0725 -395.5625 73.0625 C-395.5625 72.0725 -395.5625 71.0825 -395.5625 70.0625 C-392.41593097 70.36786699 -389.27041518 70.68298532 -386.125 71 C-385.22716797 71.08701172 -384.32933594 71.17402344 -383.40429688 71.26367188 C-382.55029297 71.35068359 -381.69628906 71.43769531 -380.81640625 71.52734375 C-380.02564697 71.605896 -379.2348877 71.68444824 -378.42016602 71.76538086 C-376.5625 72.0625 -376.5625 72.0625 -375.5625 73.0625 C-372.89747914 73.60978107 -370.24317556 74.10525632 -367.5625 74.5625 C-366.78447021 74.69849609 -366.00644043 74.83449219 -365.20483398 74.97460938 C-361.34943788 75.63606451 -357.52441783 76.22403335 -353.625 76.5625 C-349.61023342 76.94008841 -345.9953433 78.0829478 -342.1640625 79.3046875 C-337.70304239 80.60414381 -333.13747966 81.28488306 -328.5625 82.0625 C-326.68594182 82.4083156 -324.81082477 82.76207668 -322.9375 83.125 C-321.71160156 83.35896484 -321.71160156 83.35896484 -320.4609375 83.59765625 C-318.5625 84.0625 -318.5625 84.0625 -317.5625 85.0625 C-316.1744146 85.27630858 -314.77735529 85.43274849 -313.37890625 85.5625 C-312.53392578 85.645 -311.68894531 85.7275 -310.81835938 85.8125 C-309.92955078 85.895 -309.04074219 85.9775 -308.125 86.0625 C-306.37596178 86.22555673 -304.62724049 86.39206071 -302.87890625 86.5625 C-302.09974854 86.6346875 -301.32059082 86.706875 -300.51782227 86.78125 C-298.5625 87.0625 -298.5625 87.0625 -296.5625 88.0625 C-296.5625 87.4025 -296.5625 86.7425 -296.5625 86.0625 C-297.12195313 85.95292969 -297.68140625 85.84335938 -298.2578125 85.73046875 C-305.71054345 84.2566972 -313.13703495 82.6674276 -320.5625 81.0625 C-320.5625 80.4025 -320.5625 79.7425 -320.5625 79.0625 C-321.27792969 79.03671875 -321.99335938 79.0109375 -322.73046875 78.984375 C-330.8170701 78.52407686 -337.92552101 76.71080723 -345.5625 74.0625 C-345.5625 73.4025 -345.5625 72.7425 -345.5625 72.0625 C-346.23410156 72.05992187 -346.90570313 72.05734375 -347.59765625 72.0546875 C-357.60157954 71.66743886 -366.79311248 69.08692206 -376.40234375 66.4375 C-380.1055497 65.42106409 -383.75016154 64.57855258 -387.5625 64.0625 C-387.5625 63.4025 -387.5625 62.7425 -387.5625 62.0625 C-388.35914063 62.02511719 -389.15578125 61.98773438 -389.9765625 61.94921875 C-401.42340723 61.23901305 -401.42340723 61.23901305 -405.5625 58.0625 C-408.11229243 54.86377392 -410.34080559 51.49413127 -412.5625 48.0625 C-415.73624397 43.37871804 -415.73624397 43.37871804 -419.5078125 39.1796875 C-421.67496832 36.94661059 -423.16512036 34.73520191 -424.75 32.0625 C-425.25917969 31.216875 -425.76835937 30.37125 -426.29296875 29.5 C-427.5625 27.0625 -427.5625 27.0625 -427.98828125 24.875 C-428.387342 22.87597681 -428.387342 22.87597681 -430.421875 22.08984375 C-431.12828125 21.75082031 -431.8346875 21.41179687 -432.5625 21.0625 C-434.265625 19.00390625 -434.265625 19.00390625 -435.8125 16.625 C-436.33328125 15.84253906 -436.8540625 15.06007813 -437.390625 14.25390625 C-438.5625 12.0625 -438.5625 12.0625 -438.5625 9.0625 C-439.201875 8.835625 -439.84125 8.60875 -440.5 8.375 C-442.5625 7.0625 -442.5625 7.0625 -443.3125 4.4375 C-443.395 3.65375 -443.4775 2.87 -443.5625 2.0625 C-437.02219447 2.3789664 -432.77732084 3.76549201 -427.04296875 6.859375 C-424.02570457 8.32286691 -421.15047575 9.02462467 -417.86328125 9.60546875 C-411.82466221 10.8049907 -406.08191459 12.90274693 -400.3125 15 C-394.42407103 17.12281201 -388.57026383 18.98838681 -382.46875 20.421875 C-380.5625 21.0625 -380.5625 21.0625 -379.5625 23.0625 C-378.0775 23.5575 -378.0775 23.5575 -376.5625 24.0625 C-376.5625 24.7225 -376.5625 25.3825 -376.5625 26.0625 C-375.675625 25.98 -374.78875 25.8975 -373.875 25.8125 C-361.59766085 25.8855794 -348.01323616 32.99341443 -336.5625 37.0625 C-336.5625 37.7225 -336.5625 38.3825 -336.5625 39.0625 C-335.2425 39.0625 -333.9225 39.0625 -332.5625 39.0625 C-332.5625 39.7225 -332.5625 40.3825 -332.5625 41.0625 C-331.593125 41.000625 -330.62375 40.93875 -329.625 40.875 C-324.94690054 40.84624119 -320.88774418 42.41478793 -316.5625 44.0625 C-316.5625 44.7225 -316.5625 45.3825 -316.5625 46.0625 C-315.263125 46.165625 -313.96375 46.26875 -312.625 46.375 C-305.81551806 47.13398464 -299.79976588 49.43872109 -293.5859375 52.25390625 C-289.93191623 53.71410394 -286.11404116 54.7268875 -282.33203125 55.8046875 C-276.41113734 58.49372535 -273.39129869 65.29320111 -270 70.625 C-269.04173619 72.12717794 -268.08214177 73.62850804 -267.12109375 75.12890625 C-266.49158813 76.1180603 -266.49158813 76.1180603 -265.84936523 77.12719727 C-264.56163149 79.12796359 -264.56163149 79.12796359 -262.90258789 81.12084961 C-261.5625 83.0625 -261.5625 83.0625 -261.5625 86.0625 C-260.71751953 86.19591797 -260.71751953 86.19591797 -259.85546875 86.33203125 C-256.9301919 87.26393376 -255.21661011 88.77037792 -252.875 90.75 C-248.81056111 94.11388181 -244.66253025 97.05936708 -240.1796875 99.8359375 C-239.64601562 100.24070312 -239.11234375 100.64546875 -238.5625 101.0625 C-238.5625 101.7225 -238.5625 102.3825 -238.5625 103.0625 C-237.84191406 103.30871094 -237.12132812 103.55492187 -236.37890625 103.80859375 C-232.31526883 105.617786 -229.329402 108.41828304 -225.96484375 111.28515625 C-223.70613315 112.95623483 -222.30097748 113.65141216 -219.5625 114.0625 C-219.2325 113.0725 -218.9025 112.0825 -218.5625 111.0625 C-216.8203125 110.25390625 -216.8203125 110.25390625 -214.6875 109.625 C-211.08767802 108.41864255 -209.67039963 107.27982049 -207.5625 104.0625 C-206.5725 104.0625 -205.5825 104.0625 -204.5625 104.0625 C-204.5625 103.4025 -204.5625 102.7425 -204.5625 102.0625 C-202.0875 101.5675 -202.0875 101.5675 -199.5625 101.0625 C-199.5625 100.4025 -199.5625 99.7425 -199.5625 99.0625 C-198.61375 98.794375 -197.665 98.52625 -196.6875 98.25 C-193.30982727 97.31263412 -193.30982727 97.31263412 -191.5625 94.0625 C-187.11805556 91.0625 -187.11805556 91.0625 -184.5625 91.0625 C-184.5625 90.4025 -184.5625 89.7425 -184.5625 89.0625 C-183.9025 89.0625 -183.2425 89.0625 -182.5625 89.0625 C-182.253125 88.27875 -181.94375 87.495 -181.625 86.6875 C-180.5625 84.0625 -180.5625 84.0625 -179.5625 82.0625 C-178.9025 82.0625 -178.2425 82.0625 -177.5625 82.0625 C-176.9025 80.7425 -176.2425 79.4225 -175.5625 78.0625 C-174.9025 78.0625 -174.2425 78.0625 -173.5625 78.0625 C-173.335625 77.52625 -173.10875 76.99 -172.875 76.4375 C-171.48702604 73.92592806 -169.79051371 71.88166543 -167.9296875 69.70703125 C-163.7828061 64.73360626 -163.7828061 64.73360626 -160.76147461 59.06469727 C-159.21902448 56.48892176 -158.10294053 56.19098151 -155.265625 55.31640625 C-153.96226196 54.90068359 -153.96226196 54.90068359 -152.63256836 54.4765625 C-151.7019458 54.19554687 -150.77132324 53.91453125 -149.8125 53.625 C-147.88114992 53.01285499 -145.95015986 52.39957291 -144.01953125 51.78515625 C-143.07803223 51.49012207 -142.1365332 51.19508789 -141.16650391 50.89111328 C-137.91328049 49.85591355 -134.7092241 48.72704479 -131.5 47.5625 C-127.53557538 46.12563318 -123.56497214 44.7130411 -119.578125 43.33984375 C-118.69777588 43.035625 -117.81742676 42.73140625 -116.91040039 42.41796875 C-115.19190992 41.82500517 -113.47241099 41.23495256 -111.75170898 40.6484375 C-107.77484225 39.2725528 -103.9181019 37.80632346 -100.09765625 36.0390625 C-94.4737988 33.47873226 -88.6104141 31.91961066 -82.671875 30.26367188 C-78.18094406 28.97321382 -74.52432894 27.59807052 -70.5625 25.0625 C-68.68535355 24.36421214 -66.78742157 23.71991886 -64.875 23.125 C-60.07428052 21.58380961 -55.41602173 19.85323285 -50.75390625 17.9375 C-48.9046513 17.19911656 -47.01744902 16.55684695 -45.125 15.9375 C-42.36931498 15.11864836 -42.36931498 15.11864836 -39.5625 13.0625 C-37.82752834 12.47447269 -36.07374976 11.94138696 -34.3125 11.4375 C-27.58279302 9.4262353 -20.94798764 7.1772542 -14.3125 4.875 C-13.27577148 4.51776855 -12.23904297 4.16053711 -11.17089844 3.79248047 C-10.2018457 3.45490723 -9.23279297 3.11733398 -8.234375 2.76953125 C-7.3587793 2.4650708 -6.48318359 2.16061035 -5.58105469 1.84692383 C-0.88384613 0.02155722 -0.88384613 0.02155722 0 0 Z " fill="#060606" transform="translate(469.5625,68.9375)"/>
<path d="M0 0 C4.25006599 -0.04990593 8.49997099 -0.08595579 12.75024414 -0.10986328 C14.19233171 -0.11984313 15.63439946 -0.13343184 17.07641602 -0.15087891 C37.65697385 -0.39342274 37.65697385 -0.39342274 43.4375 4.75 C45.93738479 7.56150478 47.12329996 10.31785984 48 14 C51.63 14 55.26 14 59 14 C60.87404046 18.68510114 61.19157797 21.11476189 61 26 C60.01 26 59.02 26 58 26 C57.855625 26.61875 57.71125 27.2375 57.5625 27.875 C57 30 57 30 56 32 C55.34 32 54.68 32 54 32 C53.34 33.32 52.68 34.64 52 36 C43.59422444 36.11587396 35.18878276 36.20470398 26.78240585 36.25906086 C22.87890149 36.28515031 18.97594369 36.3205346 15.07275391 36.37719727 C11.30556116 36.43154313 7.53889392 36.46142545 3.77133942 36.47438622 C2.33436052 36.48362174 0.89741025 36.50165727 -0.53934479 36.52865028 C-2.55231146 36.56496318 -4.56580747 36.56704255 -6.57910156 36.56762695 C-7.72493713 36.57873001 -8.87077271 36.58983307 -10.05133057 36.60127258 C-13 36 -13 36 -15.33099365 33.63639832 C-16.91124131 31.14020514 -17.93362432 28.74210888 -19 26 C-19.66 25.67 -20.32 25.34 -21 25 C-20.85957123 23.35369672 -20.71250671 21.70795821 -20.5625 20.0625 C-20.48128906 19.14597656 -20.40007812 18.22945313 -20.31640625 17.28515625 C-20 15 -20 15 -19 14 C-17.43784182 13.94704549 -15.87521332 13.90770252 -14.3125 13.875 C-10.17624289 13.51352194 -8.18782962 12.83360876 -5.4375 9.6875 C-3.52585652 7.19099109 -2.60576719 5.08328694 -2 2 C-1.34 2 -0.68 2 0 2 C0 1.34 0 0.68 0 0 Z " fill="#F8F8F8" transform="translate(228,261)"/>
<path d="M0 0 C4.29 0 8.58 0 13 0 C17.58812404 4.73595143 18.61790886 8.86909195 18.69335938 15.36035156 C18.67080078 16.21081055 18.64824219 17.06126953 18.625 17.9375 C18.61533203 18.81760742 18.60566406 19.69771484 18.59570312 20.60449219 C18.37312093 27.2547535 17.11992837 31.64409311 13 37 C8.71 37 4.42 37 0 37 C0 24.79 0 12.58 0 0 Z " fill="#111111" transform="translate(289,379)"/>
<path d="M0 0 C4.62 0 9.24 0 14 0 C16.49140745 3.73711118 16.14679889 5.62642092 16 10.0625 C15.92367422 12.37374006 15.90837436 14.6893159 16 17 C16.66 17.66 17.32 18.32 18 19 C18.69871979 24.42726538 18.44593475 29.51355082 16.875 34.75 C14 37 14 37 0 37 C0 24.79 0 12.58 0 0 Z " fill="#0A0A0A" transform="translate(450,379)"/>
<path d="M0 0 C4.29 0 8.58 0 13 0 C15.75167522 5.50335044 15.3356186 10.39861488 15.31567383 16.47216797 C15.31250984 18.49371061 15.33600578 20.51379391 15.36132812 22.53515625 C15.36197266 23.81261719 15.36261719 25.09007812 15.36328125 26.40625 C15.36626221 27.57478516 15.36924316 28.74332031 15.37231445 29.94726562 C14.96667186 33.27326891 14.3637913 34.66260994 12 37 C9.40625 37.53125 9.40625 37.53125 6.5 37.5 C5.5409375 37.5103125 4.581875 37.520625 3.59375 37.53125 C1 37 1 37 -0.6394043 35.37890625 C-2.43249559 32.24381177 -2.37246893 30.00782174 -2.36328125 26.40625 C-2.36263672 25.12878906 -2.36199219 23.85132813 -2.36132812 22.53515625 C-2.35302979 21.87273926 -2.34473145 21.21032227 -2.33618164 20.52783203 C-2.3125751 18.5064304 -2.31562726 16.48634841 -2.32226562 14.46484375 C-2.26715163 4.53430325 -2.26715163 4.53430325 0 0 Z " fill="#030303" transform="translate(184,379)"/>
<path d="M0 0 C4.29 0 8.58 0 13 0 C15.75167522 5.50335044 15.3356186 10.39861488 15.31567383 16.47216797 C15.31250984 18.49371061 15.33600578 20.51379391 15.36132812 22.53515625 C15.36197266 23.81261719 15.36261719 25.09007812 15.36328125 26.40625 C15.36626221 27.57478516 15.36924316 28.74332031 15.37231445 29.94726562 C14.96667186 33.27326891 14.3637913 34.66260994 12 37 C9.40625 37.53125 9.40625 37.53125 6.5 37.5 C5.5409375 37.5103125 4.581875 37.520625 3.59375 37.53125 C1 37 1 37 -0.6394043 35.37890625 C-2.43249559 32.24381177 -2.37246893 30.00782174 -2.36328125 26.40625 C-2.36263672 25.12878906 -2.36199219 23.85132813 -2.36132812 22.53515625 C-2.35302979 21.87273926 -2.34473145 21.21032227 -2.33618164 20.52783203 C-2.3125751 18.5064304 -2.31562726 16.48634841 -2.32226562 14.46484375 C-2.26715163 4.53430325 -2.26715163 4.53430325 0 0 Z " fill="#030303" transform="translate(77,379)"/>
<path d="M0 0 C1.32 0 2.64 0 4 0 C4.13277344 1.21558594 4.26554688 2.43117188 4.40234375 3.68359375 C4.58050091 5.26825484 4.75889875 6.8528889 4.9375 8.4375 C5.02451172 9.23994141 5.11152344 10.04238281 5.20117188 10.86914062 C5.30548394 14.75576664 5.30548394 14.75576664 7 18 C7.66 12.39 8.32 6.78 9 1 C10.98 1 12.96 1 15 1 C15.66 7.27 16.32 13.54 17 20 C18.42905169 13.3310921 19.45043021 6.7973106 20 0 C21.32 0 22.64 0 24 0 C23.47728784 12.40753593 22.5168156 24.67403248 21 37 C18.69 37 16.38 37 14 37 C13.34 31.72 12.68 26.44 12 21 C11.38216651 25.8908971 11.38216651 25.8908971 10.77368164 30.78295898 C10.11111111 35.88888889 10.11111111 35.88888889 9 37 C7.00041636 37.04080783 4.99954746 37.04254356 3 37 C2.49065371 32.7093897 1.99424636 28.41737379 1.5 24.125 C1.35691406 22.92101562 1.21382812 21.71703125 1.06640625 20.4765625 C0.28326042 13.61471333 -0.21540245 6.90683975 0 0 Z " fill="#141414" transform="translate(152,379)"/>
<path d="M0 0 C2.64 0 5.28 0 8 0 C9.32 4.62 10.64 9.24 12 14 C12.99 9.38 13.98 4.76 15 0 C17.64 0 20.28 0 23 0 C23 12.21 23 24.42 23 37 C21.68 37 20.36 37 19 37 C18.67 27.1 18.34 17.2 18 7 C17.01 12.61 16.02 18.22 15 24 C12.69 24 10.38 24 8 24 C7.01 18.72 6.02 13.44 5 8 C4.67 17.57 4.34 27.14 4 37 C2.68 37 1.36 37 0 37 C0 24.79 0 12.58 0 0 Z " fill="#0C0C0C" transform="translate(123,379)"/>
<path d="M0 0 C3.3 0 6.6 0 10 0 C14.38762153 7.93744919 14.48811091 14.61044567 14.25 23.5625 C14.23195313 24.85736328 14.21390625 26.15222656 14.1953125 27.48632812 C14.14849322 30.65833414 14.08292473 33.82876704 14 37 C12.35 37 10.7 37 9 37 C9 31.39 9 25.78 9 20 C6.03 20 3.06 20 0 20 C0 25.61 0 31.22 0 37 C-1.32 37 -2.64 37 -4 37 C-4.09973852 33.01659695 -4.17187198 29.03368892 -4.21972656 25.04931641 C-4.24946045 23.03652373 -4.30031729 21.02407866 -4.3515625 19.01171875 C-4.42699887 11.50579971 -4.12054466 6.35926577 0 0 Z " fill="#131313" transform="translate(363,379)"/>
<path d="M0 0 C3.3 0 6.6 0 10 0 C14.38762153 7.93744919 14.48811091 14.61044567 14.25 23.5625 C14.23195313 24.85736328 14.21390625 26.15222656 14.1953125 27.48632812 C14.14849322 30.65833414 14.08292473 33.82876704 14 37 C12.68 37 11.36 37 10 37 C10 31.39 10 25.78 10 20 C6.7 20 3.4 20 0 20 C0 25.61 0 31.22 0 37 C-1.32 37 -2.64 37 -4 37 C-4.09973852 33.01659695 -4.17187198 29.03368892 -4.21972656 25.04931641 C-4.24946045 23.03652373 -4.30031729 21.02407866 -4.3515625 19.01171875 C-4.42699887 11.50579971 -4.12054466 6.35926577 0 0 Z " fill="#090909" transform="translate(317,379)"/>
<path d="M0 0 C4.29 0 8.58 0 13 0 C17 4 17 4 17.390625 7.453125 C17.32101563 9.33257812 17.32101563 9.33257812 17.25 11.25 C17.21390625 12.51328125 17.1778125 13.7765625 17.140625 15.078125 C17.07101563 16.52445312 17.07101563 16.52445312 17 18 C15.68 18 14.36 18 13 18 C13.54140625 19.68029297 13.54140625 19.68029297 14.09375 21.39453125 C14.5627259 22.86711558 15.0314635 24.33977581 15.5 25.8125 C15.73847656 26.55048828 15.97695312 27.28847656 16.22265625 28.04882812 C17.19940136 31.13255196 18 33.74495809 18 37 C16.68 37 15.36 37 14 37 C13.16142312 34.39741676 12.32896656 31.79314353 11.5 29.1875 C11.26152344 28.44951172 11.02304688 27.71152344 10.77734375 26.95117188 C9.80059864 23.86744804 9 21.25504191 9 18 C7.35 18 5.7 18 4 18 C4 24.27 4 30.54 4 37 C2.68 37 1.36 37 0 37 C0 24.79 0 12.58 0 0 Z " fill="#080808" transform="translate(206,379)"/>
<path d="M0 0 C4.29 0 8.58 0 13 0 C17 4 17 4 17.390625 7.453125 C17.32101563 9.33257812 17.32101563 9.33257812 17.25 11.25 C17.21390625 12.51328125 17.1778125 13.7765625 17.140625 15.078125 C17.07101563 16.52445312 17.07101563 16.52445312 17 18 C15.68 18 14.36 18 13 18 C13.54140625 19.68029297 13.54140625 19.68029297 14.09375 21.39453125 C14.5627259 22.86711558 15.0314635 24.33977581 15.5 25.8125 C15.73847656 26.55048828 15.97695312 27.28847656 16.22265625 28.04882812 C17.19940136 31.13255196 18 33.74495809 18 37 C16.68 37 15.36 37 14 37 C13.16142312 34.39741676 12.32896656 31.79314353 11.5 29.1875 C11.26152344 28.44951172 11.02304688 27.71152344 10.77734375 26.95117188 C9.80059864 23.86744804 9 21.25504191 9 18 C7.35 18 5.7 18 4 18 C4 24.27 4 30.54 4 37 C2.68 37 1.36 37 0 37 C0 24.79 0 12.58 0 0 Z " fill="#080808" transform="translate(99,379)"/>
<path d="M0 0 C1.32 0 2.64 0 4 0 C4 3.63 4 7.26 4 11 C7.96 11 11.92 11 16 11 C16 7.37 16 3.74 16 0 C17.32 0 18.64 0 20 0 C20 12.21 20 24.42 20 37 C18.68 37 17.36 37 16 37 C16 29.74 16 22.48 16 15 C12.04 15 8.08 15 4 15 C4 22.26 4 29.52 4 37 C2.68 37 1.36 37 0 37 C0 24.79 0 12.58 0 0 Z " fill="#040404" transform="translate(397,379)"/>
<path d="M0 0 C1.32 0 2.64 0 4 0 C4 4.29 4 8.58 4 13 C7.18564871 9.81435129 8.61688915 6.96857996 10.5234375 2.9609375 C12 1 12 1 14.6640625 0.2265625 C15.43492187 0.15179688 16.20578125 0.07703125 17 0 C15.9623898 3.54516819 14.80394923 6.32292815 12.6875 9.3125 C11.40292782 11.4948401 10.93783529 12.5252058 11.26953125 15.05859375 C12.06214785 17.43644355 13.00125404 19.7010684 14 22 C14.74209213 23.93258623 15.47111322 25.87023837 16.1875 27.8125 C16.53167969 28.70582031 16.87585938 29.59914063 17.23046875 30.51953125 C18 33 18 33 18 37 C16.68 37 15.36 37 14 37 C13.7054895 36.14450562 13.7054895 36.14450562 13.4050293 35.27172852 C12.51126848 32.69760281 11.59966973 30.13015683 10.6875 27.5625 C10.37876953 26.66466797 10.07003906 25.76683594 9.75195312 24.84179688 C9.44580078 23.98779297 9.13964844 23.13378906 8.82421875 22.25390625 C8.54666748 21.46314697 8.26911621 20.6723877 7.9831543 19.85766602 C7.08578536 17.6449441 7.08578536 17.6449441 4 17 C4 23.6 4 30.2 4 37 C2.68 37 1.36 37 0 37 C0 24.79 0 12.58 0 0 Z " fill="#0C0C0C" transform="translate(230,379)"/>
<path d="M0 0 C1.32 0 2.64 0 4 0 C4.02505615 0.89307861 4.0501123 1.78615723 4.07592773 2.70629883 C4.17110186 6.02185454 4.27033283 9.33723729 4.37231445 12.65258789 C4.41560793 14.08711003 4.45728699 15.52168184 4.49731445 16.95629883 C4.55515267 19.0191952 4.61880753 21.08184283 4.68359375 23.14453125 C4.72025146 24.38565674 4.75690918 25.62678223 4.79467773 26.90551758 C4.87144121 30.03553347 4.87144121 30.03553347 6 33 C8.31 33 10.62 33 13 33 C14.14294314 29.57117059 14.20964472 26.75917162 14.31640625 23.14453125 C14.3475779 22.15207649 14.3475779 22.15207649 14.37937927 21.13957214 C14.44464727 19.03065148 14.50365344 16.92160865 14.5625 14.8125 C14.60570689 13.38084685 14.64932188 11.94920596 14.69335938 10.51757812 C14.80030506 7.01184846 14.90163641 3.50598214 15 0 C16.32 0 17.64 0 19 0 C19.09935088 4.30495015 19.17169268 8.60928183 19.21972656 12.91503906 C19.23976332 14.37772252 19.26700104 15.84032666 19.30175781 17.30273438 C19.35063225 19.4129601 19.37304659 21.52212136 19.390625 23.6328125 C19.41157227 24.90012207 19.43251953 26.16743164 19.45410156 27.47314453 C18.91747231 31.64096503 17.66047875 33.78328345 15 37 C12.34375 37.796875 12.34375 37.796875 9.5 37.75 C8.09234375 37.77320313 8.09234375 37.77320313 6.65625 37.796875 C2.73511661 36.62053498 1.92654557 34.53571225 0 31 C-0.45410156 27.47314453 -0.45410156 27.47314453 -0.390625 23.6328125 C-0.38496521 22.95322479 -0.37930542 22.27363708 -0.37347412 21.57345581 C-0.35125351 19.42322451 -0.30109198 17.27471926 -0.25 15.125 C-0.22991614 13.6588784 -0.21166868 12.19273042 -0.1953125 10.7265625 C-0.15143811 7.15048992 -0.08251443 3.57541369 0 0 Z " fill="#040404" transform="translate(424,379)"/>
<path d="M0 0 C0.99 0.33 1.98 0.66 3 1 C3 1.66 3 2.32 3 3 C8.94 3.33 14.88 3.66 21 4 C21 4.66 21 5.32 21 6 C24.3 6 27.6 6 31 6 C31 6.66 31 7.32 31 8 C32.03898437 7.97679687 33.07796875 7.95359375 34.1484375 7.9296875 C41.16946942 7.82089313 47.73845546 7.83879424 54.60546875 9.48828125 C59.01307717 10.43020083 63.51123863 10.67571686 68 11 C68 11.66 68 12.32 68 13 C68.65484375 12.97679687 69.3096875 12.95359375 69.984375 12.9296875 C77.19662589 12.78707237 83.92819038 13.61772657 91 15 C91.495 16.98 91.495 16.98 92 19 C84.08 19 76.16 19 68 19 C68 18.34 68 17.68 68 17 C66.68902344 17.03480469 66.68902344 17.03480469 65.3515625 17.0703125 C55.09769875 17.22078849 45.16480647 16.30407597 35 15 C35 14.67 35 14.34 35 14 C43.91 14 52.82 14 62 14 C62 13.34 62 12.68 62 12 C59.03 12 56.06 12 53 12 C53 11.34 53 10.68 53 10 C52.06994141 10.01740234 52.06994141 10.01740234 51.12109375 10.03515625 C29.510699 10.2553495 29.510699 10.2553495 25 8 C22.62876754 7.76970044 20.25258057 7.58880058 17.875 7.4375 C16.59367187 7.35371094 15.31234375 7.26992187 13.9921875 7.18359375 C12.51105469 7.09271484 12.51105469 7.09271484 11 7 C11 6.34 11 5.68 11 5 C8.03 5 5.06 5 2 5 C1.34 3.35 0.68 1.7 0 0 Z " fill="#E0E0E0" transform="translate(97,172)"/>
<path d="M0 0 C0 1.65 0 3.3 0 5 C-5.445 5.495 -5.445 5.495 -11 6 C-11 8.31 -11 10.62 -11 13 C-9.046875 13.09765625 -7.09375 13.1953125 -5.140625 13.29296875 C-1.83804075 14.38378581 -0.7792879 16.05551472 1 19 C1.53125 22.62890625 1.53125 22.62890625 1.5 26.5625 C1.5103125 27.86316406 1.520625 29.16382813 1.53125 30.50390625 C1 34 1 34 -0.640625 36.44921875 C-3.7003642 38.46033872 -5.61992716 38.40782925 -9.25 38.25 C-10.32765625 38.21390625 -11.4053125 38.1778125 -12.515625 38.140625 C-13.33546875 38.09421875 -14.1553125 38.0478125 -15 38 C-15 36.68 -15 35.36 -15 34 C-14.28972656 33.93941406 -13.57945313 33.87882812 -12.84765625 33.81640625 C-11.92855469 33.73261719 -11.00945313 33.64882813 -10.0625 33.5625 C-9.14597656 33.48128906 -8.22945312 33.40007812 -7.28515625 33.31640625 C-5.03840268 33.23955024 -5.03840268 33.23955024 -4 32 C-3.90126184 30.00200428 -3.87028201 28.00042842 -3.875 26 C-3.87242188 24.906875 -3.86984375 23.81375 -3.8671875 22.6875 C-3.69452245 20.08169646 -3.69452245 20.08169646 -5 19 C-6.27875 18.896875 -7.5575 18.79375 -8.875 18.6875 C-11.60081869 18.3504364 -12.76664894 18.1750133 -15 16.5 C-16.99289454 11.51776365 -16.76284126 6.86896108 -14.75 1.9375 C-10.25547631 -1.22909624 -5.32279191 -0.37661264 0 0 Z " fill="#181818" transform="translate(47,378)"/>
<path d="M0 0 C-1 1 -1 1 -3.5625 1.0625 C-4.7690625 1.0315625 -4.7690625 1.0315625 -6 1 C-6 1.66 -6 2.32 -6 3 C-2.04 3 1.92 3 6 3 C6 2.34 6 1.68 6 1 C10.62 0.67 15.24 0.34 20 0 C18 2 18 2 14.875 2.125 C13.92625 2.08375 12.9775 2.0425 12 2 C12 2.66 12 3.32 12 4 C11.34773438 4.04898438 10.69546875 4.09796875 10.0234375 4.1484375 C9.14945312 4.22320312 8.27546875 4.29796875 7.375 4.375 C6.51648438 4.44460937 5.65796875 4.51421875 4.7734375 4.5859375 C1.97022983 4.90790799 1.97022983 4.90790799 -0.6640625 5.984375 C-6.17017618 7.66070938 -11.86899185 7.71274542 -17.59375 8.03515625 C-23.57290787 8.47285703 -28.43492674 9.65187502 -33.92114258 12.09130859 C-39.94397391 14.7239543 -46.56078704 14.10311907 -53 14 C-53 13.34 -53 12.68 -53 12 C-49.4439741 9.86638446 -46.0671284 9.56098323 -42 9 C-41.113125 8.690625 -40.22625 8.38125 -39.3125 8.0625 C-34.31615543 6.45989891 -29.17874167 5.78770504 -24 5 C-24 4.34 -24 3.68 -24 3 C-22.60587891 2.81824219 -22.60587891 2.81824219 -21.18359375 2.6328125 C-13.40615607 1.66707065 -13.40615607 1.66707065 -5.8125 -0.1875 C-3 -1 -3 -1 0 0 Z " fill="#EFEFEF" transform="translate(375,143)"/>
<path d="M0 0 C2.31 0 4.62 0 7 0 C8.3767748 2.7535496 8.12969689 4.98840409 8.1328125 8.06640625 C8.13410156 9.27361328 8.13539063 10.48082031 8.13671875 11.72460938 C8.13285156 12.99111328 8.12898437 14.25761719 8.125 15.5625 C8.12886719 16.83287109 8.13273438 18.10324219 8.13671875 19.41210938 C8.13542969 20.61802734 8.13414062 21.82394531 8.1328125 23.06640625 C8.13168457 24.17959229 8.13055664 25.29277832 8.12939453 26.43969727 C8 29 8 29 7 30 C3.5 30.125 3.5 30.125 0 30 C-1.79829077 28.20170923 -1.13035658 25.49022841 -1.1328125 23.06640625 C-1.13410156 21.86048828 -1.13539063 20.65457031 -1.13671875 19.41210938 C-1.13285156 18.14173828 -1.12898437 16.87136719 -1.125 15.5625 C-1.12886719 14.29599609 -1.13273438 13.02949219 -1.13671875 11.72460938 C-1.13542969 10.51740234 -1.13414062 9.31019531 -1.1328125 8.06640625 C-1.13168457 6.95209229 -1.13055664 5.83777832 -1.12939453 4.68969727 C-1 2 -1 2 0 0 Z " fill="#F8F8F8" transform="translate(187,382)"/>
<path d="M0 0 C2.31 0 4.62 0 7 0 C8.3767748 2.7535496 8.12969689 4.98840409 8.1328125 8.06640625 C8.13410156 9.27361328 8.13539062 10.48082031 8.13671875 11.72460938 C8.13285156 12.99111328 8.12898438 14.25761719 8.125 15.5625 C8.12886719 16.83287109 8.13273437 18.10324219 8.13671875 19.41210938 C8.13542969 20.61802734 8.13414063 21.82394531 8.1328125 23.06640625 C8.13168457 24.17959229 8.13055664 25.29277832 8.12939453 26.43969727 C8 29 8 29 7 30 C3.5 30.125 3.5 30.125 0 30 C-1.79829077 28.20170923 -1.13035658 25.49022841 -1.1328125 23.06640625 C-1.13410156 21.86048828 -1.13539062 20.65457031 -1.13671875 19.41210938 C-1.13285156 18.14173828 -1.12898438 16.87136719 -1.125 15.5625 C-1.12886719 14.29599609 -1.13273437 13.02949219 -1.13671875 11.72460938 C-1.13542969 10.51740234 -1.13414063 9.31019531 -1.1328125 8.06640625 C-1.13168457 6.95209229 -1.13055664 5.83777832 -1.12939453 4.68969727 C-1 2 -1 2 0 0 Z " fill="#F8F8F8" transform="translate(80,382)"/>
<path d="M0 0 C1.08667969 0.02707031 2.17335938 0.05414063 3.29296875 0.08203125 C4.54013672 0.13423828 4.54013672 0.13423828 5.8125 0.1875 C5.8125 1.5075 5.8125 2.8275 5.8125 4.1875 C2.5125 4.5175 -0.7875 4.8475 -4.1875 5.1875 C-4.1875 7.4975 -4.1875 9.8075 -4.1875 12.1875 C-2.929375 12.27 -1.67125 12.3525 -0.375 12.4375 C2.35751333 12.6166812 3.48517262 12.89621541 5.55078125 14.734375 C7.32085121 18.17587325 7.24909264 21.40981778 7.1875 25.1875 C7.19910156 25.8990625 7.21070313 26.610625 7.22265625 27.34375 C7.20551015 30.40718677 6.95754519 32.86153271 5.70703125 35.671875 C2.88389485 37.93038412 0.67753347 37.57819439 -2.875 37.4375 C-4.64423828 37.38335937 -4.64423828 37.38335937 -6.44921875 37.328125 C-7.35285156 37.28171875 -8.25648438 37.2353125 -9.1875 37.1875 C-9.1875 35.8675 -9.1875 34.5475 -9.1875 33.1875 C-3.7425 32.6925 -3.7425 32.6925 1.8125 32.1875 C1.8125 27.5675 1.8125 22.9475 1.8125 18.1875 C0.554375 18.105 -0.70375 18.0225 -2 17.9375 C-4.85916227 17.75001395 -5.86566147 17.50789206 -7.92578125 15.45703125 C-9.40016542 12.80496561 -9.58981632 11.1434537 -9.5625 8.125 C-9.57023438 7.26777344 -9.57796875 6.41054688 -9.5859375 5.52734375 C-9.1875 3.1875 -9.1875 3.1875 -8.05078125 1.390625 C-5.33890379 -0.36044053 -3.19098748 -0.10293508 0 0 Z " fill="#0E0E0E" transform="translate(262.1875,378.8125)"/>
<path d="M0 0 C2.31 0 4.62 0 7 0 C8.77948801 3.0712514 9.25605436 5.30808201 9.265625 8.84375 C9.26820313 9.76027344 9.27078125 10.67679687 9.2734375 11.62109375 C9.26570313 12.57113281 9.25796875 13.52117187 9.25 14.5 C9.25773437 15.45003906 9.26546875 16.40007812 9.2734375 17.37890625 C9.27085937 18.29542969 9.26828125 19.21195312 9.265625 20.15625 C9.26336914 20.98962891 9.26111328 21.82300781 9.25878906 22.68164062 C8.97888637 25.18914626 8.25689064 26.83070911 7 29 C4.69 29 2.38 29 0 29 C0 19.43 0 9.86 0 0 Z " fill="#F0F0F0" transform="translate(293,383)"/>
<path d="M0 0 C2.4375 1.0625 2.4375 1.0625 4 2 C3.28710435 5.13528595 2.2907467 8.06680209 1.125 11.0625 C0.79757813 11.91972656 0.47015625 12.77695313 0.1328125 13.66015625 C-0.98527344 15.96958203 -2.08073582 17.32749836 -4 19 C-7.69496329 17.76834557 -8.35395945 16.11775079 -10.1484375 12.7890625 C-11.05420937 10.8861106 -11.66653644 9.08414724 -12 7 C-12.66 7 -13.32 7 -14 7 C-14.33 6.01 -14.66 5.02 -15 4 C-12 2 -12 2 -9 2 C-9 1.34 -9 0.68 -9 0 C-5.88094953 -1.55952523 -3.35318513 -0.6359489 0 0 Z " fill="#ECECEC" transform="translate(254,197)"/>
<path d="M0 0 C6.27 0 12.54 0 19 0 C19 1.32 19 2.64 19 4 C16.69 4 14.38 4 12 4 C12 14.89 12 25.78 12 37 C10.68 37 9.36 37 8 37 C8 26.11 8 15.22 8 4 C5.36 4 2.72 4 0 4 C0 2.68 0 1.36 0 0 Z " fill="#0A0A0A" transform="translate(335,379)"/>
<path d="M0 0 C5.94 0 11.88 0 18 0 C18 1.32 18 2.64 18 4 C15.69 4 13.38 4 11 4 C11 14.89 11 25.78 11 37 C9.68 37 8.36 37 7 37 C7 26.11 7 15.22 7 4 C4.69 4 2.38 4 0 4 C0 2.68 0 1.36 0 0 Z " fill="#020202" transform="translate(52,379)"/>
<path d="M0 0 C-4.65002362 2.32501181 -10.96395274 2.31326628 -16 3 C-7.75 3 0.5 3 9 3 C4.86237292 5.06881354 1.44406544 5.61488876 -3.0625 6.0625 C-4.24428833 6.1860083 -4.24428833 6.1860083 -5.44995117 6.31201172 C-18.60080309 7.62384979 -31.78559257 8.21351825 -45 8 C-45 7.34 -45 6.68 -45 6 C-35.8664849 3.73933309 -26.75237196 2.06153397 -17.4375 0.75 C-16.19419922 0.564375 -14.95089844 0.37875 -13.66992188 0.1875 C-12.47818359 0.01734375 -11.28644531 -0.1528125 -10.05859375 -0.328125 C-8.98923584 -0.4818457 -7.91987793 -0.63556641 -6.81811523 -0.79394531 C-4.21071327 -0.98459309 -2.45656306 -0.82119711 0 0 Z " fill="#C9C9C9" transform="translate(353,182)"/>
<path d="M0 0 C0.33 0 0.66 0 1 0 C1.042721 1.66611905 1.04063832 3.33382885 1 5 C0 6 0 6 -2.66383362 6.12025452 C-4.4458744 6.1169236 -4.4458744 6.1169236 -6.26391602 6.11352539 C-7.2443689 6.11374443 -7.2443689 6.11374443 -8.24462891 6.1139679 C-10.41442128 6.11326883 -12.58412879 6.10547678 -14.75390625 6.09765625 C-16.25463311 6.09579205 -17.75536057 6.09436816 -19.25608826 6.09336853 C-23.21318226 6.08954352 -27.17023978 6.0797134 -31.12731934 6.06866455 C-35.16234849 6.05845006 -39.19738353 6.05387083 -43.23242188 6.04882812 C-51.15496469 6.03809111 -59.07747781 6.0210149 -67 6 C-67 5.01 -67 4.02 -67 3 C-66.19011627 3.00666183 -65.38023254 3.01332367 -64.54580688 3.02018738 C-56.9234852 3.08023118 -49.30127774 3.12593989 -41.67878151 3.15543652 C-37.75971028 3.17111071 -33.84083401 3.19238048 -29.921875 3.22631836 C-26.14175875 3.25885001 -22.36183033 3.2768398 -18.58158493 3.28463173 C-17.13742489 3.29018645 -15.69327544 3.30103321 -14.2491951 3.31719017 C-12.23084743 3.33887964 -10.21231183 3.34022467 -8.19384766 3.34057617 C-6.46843246 3.35056892 -6.46843246 3.35056892 -4.7081604 3.36076355 C-3.81446747 3.24171158 -2.92077454 3.12265961 -2 3 C-1.34 2.01 -0.68 1.02 0 0 Z " fill="#686868" transform="translate(282,293)"/>
<path d="M0 0 C1.27875 -0.061875 2.5575 -0.12375 3.875 -0.1875 C4.95394531 -0.23970703 4.95394531 -0.23970703 6.0546875 -0.29296875 C6.69664062 -0.19628906 7.33859375 -0.09960938 8 0 C10.08133467 3.122002 10.2737822 3.93266989 10.25 7.5 C10.25515625 8.2734375 10.2603125 9.046875 10.265625 9.84375 C10 12 10 12 8 15 C6.0546875 15.29296875 6.0546875 15.29296875 3.875 15.1875 C1.956875 15.0946875 1.956875 15.0946875 0 15 C0 10.05 0 5.1 0 0 Z " fill="#F6F6F6" transform="translate(454,397)"/>
<path d="M0 0 C0.99 0.33 1.98 0.66 3 1 C3 1.66 3 2.32 3 3 C8.94 3.33 14.88 3.66 21 4 C21 4.66 21 5.32 21 6 C24.3 6 27.6 6 31 6 C31 6.66 31 7.32 31 8 C32.03898437 7.97679687 33.07796875 7.95359375 34.1484375 7.9296875 C41.16946942 7.82089313 47.73845546 7.83879424 54.60546875 9.48828125 C59.01307717 10.43020083 63.51123863 10.67571686 68 11 C68 11.66 68 12.32 68 13 C68.73605469 12.98839844 69.47210938 12.97679687 70.23046875 12.96484375 C71.69419922 12.95130859 71.69419922 12.95130859 73.1875 12.9375 C74.15042969 12.92589844 75.11335938 12.91429687 76.10546875 12.90234375 C78.85576513 12.99513378 81.32479591 13.37888315 84 14 C84 14.33 84 14.66 84 15 C81.22882696 14.85919445 78.45817359 14.71256882 75.6875 14.5625 C74.50897461 14.50352539 74.50897461 14.50352539 73.30664062 14.44335938 C72.54931641 14.40146484 71.79199219 14.35957031 71.01171875 14.31640625 C69.96697388 14.26141968 69.96697388 14.26141968 68.90112305 14.20532227 C67 14 67 14 64 13 C62.10787263 12.77820215 60.21115528 12.59385985 58.3125 12.4375 C57.31863281 12.35371094 56.32476562 12.26992187 55.30078125 12.18359375 C54.54152344 12.12300781 53.78226563 12.06242188 53 12 C53 11.34 53 10.68 53 10 C52.06994141 10.01740234 52.06994141 10.01740234 51.12109375 10.03515625 C29.510699 10.2553495 29.510699 10.2553495 25 8 C22.62876754 7.76970044 20.25258057 7.58880058 17.875 7.4375 C16.59367187 7.35371094 15.31234375 7.26992187 13.9921875 7.18359375 C12.51105469 7.09271484 12.51105469 7.09271484 11 7 C11 6.34 11 5.68 11 5 C8.03 5 5.06 5 2 5 C1.34 3.35 0.68 1.7 0 0 Z " fill="#717171" transform="translate(97,172)"/>
<path d="M0 0 C-1 1 -1 1 -3.5625 1.0625 C-4.7690625 1.0315625 -4.7690625 1.0315625 -6 1 C-6 1.66 -6 2.32 -6 3 C-2.04 3 1.92 3 6 3 C6 2.34 6 1.68 6 1 C10.62 0.67 15.24 0.34 20 0 C18 2 18 2 14.875 2.125 C13.92625 2.08375 12.9775 2.0425 12 2 C12 2.66 12 3.32 12 4 C11.34773438 4.04898438 10.69546875 4.09796875 10.0234375 4.1484375 C6.1174832 4.48257518 2.60175423 4.79540356 -1.125 6.0625 C-4.90435423 7.29489812 -8.0362088 7.13668246 -12 7 C-12 6 -12 5 -12 4 C-14.97 4 -17.94 4 -21 4 C-21 4.66 -21 5.32 -21 6 C-25.455 6.495 -25.455 6.495 -30 7 C-27 5 -27 5 -24 5 C-24 4.34 -24 3.68 -24 3 C-23.07058594 2.87882813 -22.14117187 2.75765625 -21.18359375 2.6328125 C-13.40615607 1.66707065 -13.40615607 1.66707065 -5.8125 -0.1875 C-3 -1 -3 -1 0 0 Z " fill="#CDCDCD" transform="translate(375,143)"/>
<path d="M0 0 C5.28 0 10.56 0 16 0 C16 8.58 16 17.16 16 26 C18.31 26 20.62 26 23 26 C23 17.75 23 9.5 23 1 C23.33 1 23.66 1 24 1 C25.45413787 20.24135999 25.45413787 20.24135999 25 27 C24 28 24 28 21.93359375 28.09765625 C21.10988281 28.08605469 20.28617188 28.07445312 19.4375 28.0625 C18.61121094 28.05347656 17.78492188 28.04445313 16.93359375 28.03515625 C15.97646484 28.01775391 15.97646484 28.01775391 15 28 C14.36635473 18.98187001 13.87434837 10.04691745 14 1 C9.38 1.33 4.76 1.66 0 2 C0 1.34 0 0.68 0 0 Z " fill="#747474" transform="translate(147,308)"/>
<path d="M0 0 C2.64 0.33 5.28 0.66 8 1 C8 1.66 8 2.32 8 3 C9.175625 3.0825 10.35125 3.165 11.5625 3.25 C18.55112966 4.00038171 25.25736681 6.09003144 32 8 C32 8.66 32 9.32 32 10 C28.52015976 9.69471967 25.04128417 9.37957083 21.5625 9.0625 C20.56927734 8.97548828 19.57605469 8.88847656 18.55273438 8.79882812 C17.60849609 8.71181641 16.66425781 8.62480469 15.69140625 8.53515625 C14.81685791 8.456604 13.94230957 8.37805176 13.04125977 8.29711914 C11 8 11 8 10 7 C8.32115762 6.6068352 6.63149955 6.25914548 4.9375 5.9375 C4.01839844 5.76089844 3.09929687 5.58429688 2.15234375 5.40234375 C1.44207031 5.26957031 0.73179687 5.13679687 0 5 C0 4.67 0 4.34 0 4 C1.98 3.67 3.96 3.34 6 3 C4.02 2.34 2.04 1.68 0 1 C0 0.67 0 0.34 0 0 Z " fill="#CBCBCB" transform="translate(141,147)"/>
<path d="M0 0 C2.375 0.25 2.375 0.25 5 1 C7.66181082 4.2955753 7.15640774 7.93339881 7 12 C3.7 12 0.4 12 -3 12 C-3.2954439 6.97745369 -2.98514628 4.10457614 0 0 Z " fill="#EBEBEB" transform="translate(320,383)"/>
<path d="M0 0 C1.65 0 3.3 0 5 0 C7.60018816 3.90028225 7.15085514 7.47434569 7 12 C4.03 12 1.06 12 -2 12 C-2.17835515 7.45194365 -1.99785435 4.1205746 0 0 Z " fill="#F5F5F5" transform="translate(365,383)"/>
<path d="M0 0 C0 3 0 3 -1 6 C-1.66 6 -2.32 6 -3 6 C-3 6.99 -3 7.98 -3 9 C-3.66 9 -4.32 9 -5 9 C-5 9.99 -5 10.98 -5 12 C-5.80824219 12.19335938 -6.61648438 12.38671875 -7.44921875 12.5859375 C-8.51785156 12.84632813 -9.58648437 13.10671875 -10.6875 13.375 C-11.74324219 13.63023437 -12.79898438 13.88546875 -13.88671875 14.1484375 C-16.70927105 14.92047815 -19.28964736 15.9123504 -22 17 C-27.31850289 18.36544765 -32.48903025 19.29005104 -38 19 C-38 19.66 -38 20.32 -38 21 C-40.64 21 -43.28 21 -46 21 C-46 20.67 -46 20.34 -46 20 C-45.20335937 19.80664062 -44.40671875 19.61328125 -43.5859375 19.4140625 C-37.04413751 17.82401573 -37.04413751 17.82401573 -30.625 15.8125 C-27.64096431 14.8888699 -25.10570057 14.8521095 -22 15 C-22 14.34 -22 13.68 -22 13 C-19.69 13 -17.38 13 -15 13 C-15 12.34 -15 11.68 -15 11 C-13.88625 10.896875 -12.7725 10.79375 -11.625 10.6875 C-10.42875 10.460625 -9.2325 10.23375 -8 10 C-7.34 9.01 -6.68 8.02 -6 7 C-5.34 7 -4.68 7 -4 7 C-3.71125 6.21625 -3.4225 5.4325 -3.125 4.625 C-2 2 -2 2 0 0 Z " fill="#727272" transform="translate(438,116)"/>
<path d="M0 0 C3.5625 0.125 3.5625 0.125 5.5625 1.125 C5.2325 4.095 4.9025 7.065 4.5625 10.125 C-1.0625 10.375 -1.0625 10.375 -4.4375 8.125 C-4.6875 4.5625 -4.6875 4.5625 -4.4375 1.125 C-3.4375 0.125 -3.4375 0.125 0 0 Z " fill="#D4D4D4" transform="translate(134.4375,298.875)"/>
<path d="M0 0 C2.64 0 5.28 0 8 0 C9.60725635 3.21451269 9.05748185 6.43612536 9 10 C6.03 10 3.06 10 0 10 C0 6.7 0 3.4 0 0 Z " fill="#FBFBFB" transform="translate(210,383)"/>
<path d="M0 0 C2.64 0 5.28 0 8 0 C9.60725635 3.21451269 9.05748185 6.43612536 9 10 C6.03 10 3.06 10 0 10 C0 6.7 0 3.4 0 0 Z " fill="#FBFBFB" transform="translate(103,383)"/>
<path d="M0 0 C2.64 0 5.28 0 8 0 C8 2.31 8 4.62 8 7 C7.67 7 7.34 7 7 7 C6.67 5.35 6.34 3.7 6 2 C4.68 2 3.36 2 2 2 C2 10.91 2 19.82 2 29 C-2.62 29 -7.24 29 -12 29 C-12 28.67 -12 28.34 -12 28 C-8.04 28 -4.08 28 0 28 C0 18.76 0 9.52 0 0 Z " fill="#474747" transform="translate(161,270)"/>
<path d="M0 0 C13.80356283 2.49638902 13.80356283 2.49638902 20 5 C20.33 5.66 20.66 6.32 21 7 C11.94945834 7.50803456 3.7649265 5.98718981 -5 4 C-5 3.67 -5 3.34 -5 3 C-3.35 3 -1.7 3 0 3 C0 2.01 0 1.02 0 0 Z " fill="#F1F1F1" transform="translate(127,144)"/>
<path d="M0 0 C2.64 0 5.28 0 8 0 C8 3.3 8 6.6 8 10 C5.36 10 2.72 10 0 10 C0 6.7 0 3.4 0 0 Z " fill="#F5F5F5" transform="translate(454,383)"/>
<path d="M0 0 C4.03867161 0.11872832 8.07713142 0.24300659 12.11547852 0.37231445 C13.48782776 0.4154884 14.86022467 0.45717501 16.23266602 0.49731445 C18.21122068 0.55544392 20.1895997 0.6194571 22.16796875 0.68359375 C23.95110474 0.73858032 23.95110474 0.73858032 25.77026367 0.79467773 C28.61859544 0.97575318 31.21975317 1.38898371 34 2 C35.43628457 2.06266512 36.8750555 2.08686347 38.3125 2.0625 C39.529375 2.041875 40.74625 2.02125 42 2 C41.505 1.01 41.505 1.01 41 0 C41.99 0.33 42.98 0.66 44 1 C44 1.99 44 2.98 44 4 C36.08 4 28.16 4 20 4 C20 3.34 20 2.68 20 2 C18.97519531 2.01160156 17.95039063 2.02320313 16.89453125 2.03515625 C15.533856 2.04454022 14.17317876 2.05363977 12.8125 2.0625 C12.13896484 2.07087891 11.46542969 2.07925781 10.77148438 2.08789062 C7.04565869 2.10606538 3.6211958 1.89299392 0 1 C0 0.67 0 0.34 0 0 Z " fill="#7D7D7D" transform="translate(145,187)"/>
<path d="M0 0 C1.09731445 0.01353516 1.09731445 0.01353516 2.21679688 0.02734375 C3.99884298 0.05063847 5.78071759 0.0864981 7.5625 0.125 C7.5625 1.115 7.5625 2.105 7.5625 3.125 C-0.12354474 4.09659933 -7.69613399 4.23420422 -15.4375 4.125 C-15.4375 3.465 -15.4375 2.805 -15.4375 2.125 C-10.12218311 0.35089949 -5.58131195 -0.1327668 0 0 Z " fill="#D2D2D2" transform="translate(323.4375,185.875)"/>
<path d="M0 0 C-0.66 1.65 -1.32 3.3 -2 5 C-2.495 3.02 -2.495 3.02 -3 1 C-3.66 1.33 -4.32 1.66 -5 2 C-6.56947149 2.14005403 -8.14402637 2.22556 -9.71875 2.28125 C-10.65074219 2.31863281 -11.58273437 2.35601562 -12.54296875 2.39453125 C-14.51432292 2.46484375 -16.48567708 2.53515625 -18.45703125 2.60546875 C-19.38902344 2.64285156 -20.32101562 2.68023437 -21.28125 2.71875 C-22.13783203 2.74904297 -22.99441406 2.77933594 -23.87695312 2.81054688 C-26.0534602 2.87425345 -26.0534602 2.87425345 -28 4 C-30.71760108 4.07181821 -33.40859388 4.09299506 -36.125 4.0625 C-36.87910156 4.05798828 -37.63320313 4.05347656 -38.41015625 4.04882812 C-40.27347127 4.03703499 -42.13674555 4.01909942 -44 4 C-44 3.67 -44 3.34 -44 3 C-43.2471875 2.95101562 -42.494375 2.90203125 -41.71875 2.8515625 C-36.15775961 2.46013356 -30.64463877 1.97921046 -25.12109375 1.21386719 C-16.68499717 0.04585577 -8.5170708 -0.22026907 0 0 Z " fill="#424242" transform="translate(389,184)"/>
<path d="M0 0 C0 0.66 0 1.32 0 2 C-1.98 2.33 -3.96 2.66 -6 3 C-3.69 3.33 -1.38 3.66 1 4 C-4.99575684 7.99717123 -12.03934302 7.1114696 -19 7 C-19 6.34 -19 5.68 -19 5 C-15.4439741 2.86638446 -12.0671284 2.56098323 -8 2 C-1.76470588 0 -1.76470588 0 0 0 Z " fill="#8A8A8A" transform="translate(341,150)"/>
<path d="M0 0 C2 1 2 1 2.8515625 3.51171875 C3.10679687 4.55972656 3.36203125 5.60773438 3.625 6.6875 C3.88539063 7.72261719 4.14578125 8.75773438 4.4140625 9.82421875 C4.99301494 12.96214097 5.1049677 15.81757007 5 19 C5.66 19 6.32 19 7 19 C7.53160457 21.41474617 8.05054766 23.83108107 8.5625 26.25 C8.71396484 26.93191406 8.86542969 27.61382812 9.02148438 28.31640625 C9.75233495 31.81769038 10.32203546 34.60298173 9 38 C6.6795946 30.71212479 4.52941098 23.49292823 3 16 C2.45835495 13.52082861 1.91668687 11.04166225 1.375 8.5625 C0 2.25247525 0 2.25247525 0 0 Z " fill="#7B7B7B" transform="translate(296,232)"/>
<path d="M0 0 C-2.70879335 1.35439668 -5.00933268 1.06501451 -8 1 C-8 1.66 -8 2.32 -8 3 C-8.65226562 3.04898438 -9.30453125 3.09796875 -9.9765625 3.1484375 C-13.8825168 3.48257518 -17.39824577 3.79540356 -21.125 5.0625 C-24.90435423 6.29489812 -28.0362088 6.13668246 -32 6 C-28.86501708 4.14223235 -26.62528568 3.79859524 -23 4 C-23 3.34 -23 2.68 -23 2 C-20.03 2 -17.06 2 -14 2 C-14 1.34 -14 0.68 -14 0 C-12.41773035 -0.19627391 -10.83410729 -0.38165538 -9.25 -0.5625 C-8.36828125 -0.66691406 -7.4865625 -0.77132812 -6.578125 -0.87890625 C-4.11567549 -0.99456676 -2.33461936 -0.73638695 0 0 Z " fill="#858585" transform="translate(395,144)"/>
<path d="M0 0 C3.14656903 0.30536699 6.29208482 0.62048532 9.4375 0.9375 C10.33533203 1.02451172 11.23316406 1.11152344 12.15820312 1.20117188 C13.01220703 1.28818359 13.86621094 1.37519531 14.74609375 1.46484375 C15.53685303 1.543396 16.3276123 1.62194824 17.14233398 1.70288086 C19 2 19 2 20 3 C21.67884238 3.3931648 23.36850045 3.74085452 25.0625 4.0625 C25.98160156 4.23910156 26.90070313 4.41570312 27.84765625 4.59765625 C28.55792969 4.73042969 29.26820312 4.86320313 30 5 C26.58860997 6.09651823 23.79344419 5.94215473 20.25 5.5625 C19.26515625 5.46066406 18.2803125 5.35882813 17.265625 5.25390625 C16.14414063 5.12822266 16.14414063 5.12822266 15 5 C15 4.34 15 3.68 15 3 C13.7625 3.020625 12.525 3.04125 11.25 3.0625 C8.3359175 3.06766681 5.79046673 2.93015558 3 2 C3.33 3.32 3.66 4.64 4 6 C2 4.6875 2 4.6875 0 3 C0 2.01 0 1.02 0 0 Z " fill="#6D6D6D" transform="translate(74,139)"/>
<path d="M0 0 C-0.70942678 3.68901928 -2.10127418 6.7651338 -4 10 C-6.1875 11.375 -6.1875 11.375 -8 12 C-7.67 11.01 -7.34 10.02 -7 9 C-6.34 9 -5.68 9 -5 9 C-4.67 7.02 -4.34 5.04 -4 3 C-12.91 3.99 -12.91 3.99 -22 5 C-19.51213732 2.51213732 -18.05955663 2.48537163 -14.625 1.9375 C-10.69903732 1.30561593 -10.69903732 1.30561593 -6.8203125 0.4453125 C-4.51673614 -0.11822335 -2.36152033 -0.06559779 0 0 Z " fill="#616161" transform="translate(422,138)"/>
<path d="M0 0 C1.32 0 2.64 0 4 0 C4 0.99 4 1.98 4 3 C3.34 3 2.68 3 2 3 C2 3.99 2 4.98 2 6 C1.34 6 0.68 6 0 6 C0 6.66 0 7.32 0 8 C-1.98 8 -3.96 8 -6 8 C-6 6.68 -6 5.36 -6 4 C-5.01 4 -4.02 4 -3 4 C-3 3.34 -3 2.68 -3 2 C-2.01 2 -1.02 2 0 2 C0 1.34 0 0.68 0 0 Z " fill="#B8B8B8" transform="translate(267,183)"/>
<path d="M0 0 C0 0.99 0 1.98 0 3 C-1.65 3.33 -3.3 3.66 -5 4 C-4.69507659 11.87666219 -4.69507659 11.87666219 -1.53125 18.75390625 C0.2590328 19.96663161 0.2590328 19.96663161 3 21 C2.34 21.33 1.68 21.66 1 22 C-1.4750171 20.88568235 -3.67883419 19.41849022 -6 18 C-6.1079859 15.56131832 -6.18726589 13.12740867 -6.25 10.6875 C-6.28351563 9.99720703 -6.31703125 9.30691406 -6.3515625 8.59570312 C-6.45057158 3.47198304 -6.45057158 3.47198304 -4.109375 1.01953125 C-2 0 -2 0 0 0 Z " fill="#7B7B7B" transform="translate(127,293)"/>
<path d="M0 0 C0.33 1.32 0.66 2.64 1 4 C-1.97 4 -4.94 4 -8 4 C-8 5.65 -8 7.3 -8 9 C-7.34 9 -6.68 9 -6 9 C-5.67 12.3 -5.34 15.6 -5 19 C-2.525 19.99 -2.525 19.99 0 21 C-2 22 -2 22 -4.5 21.5 C-7 20 -7 20 -8.3125 17 C-9.35606301 12.38686633 -9.17023194 7.70029299 -9 3 C-6.03 3 -3.06 3 0 3 C0 2.01 0 1.02 0 0 Z " fill="#919191" transform="translate(306,271)"/>
<path d="M0 0 C-0.33 0.99 -0.66 1.98 -1 3 C2.96 3 6.92 3 11 3 C11 3.33 11 3.66 11 4 C6.32798795 5.20568053 1.78503708 5.09382426 -3 5 C-3 4.01 -3 3.02 -3 2 C-6.3 2 -9.6 2 -13 2 C-13 1.67 -13 1.34 -13 1 C-8.59085217 -0.10228696 -4.51617599 -0.07654536 0 0 Z " fill="#A3A3A3" transform="translate(334,184)"/>
<path d="M0 0 C-3.1112068 1.76625091 -5.77690768 2.41001291 -9.31640625 2.8515625 C-10.83331055 3.04492188 -10.83331055 3.04492188 -12.38085938 3.2421875 C-13.95577148 3.43167969 -13.95577148 3.43167969 -15.5625 3.625 C-16.61630859 3.7590625 -17.67011719 3.893125 -18.75585938 4.03125 C-26.50091677 5 -26.50091677 5 -30 5 C-30 4.34 -30 3.68 -30 3 C-26.37 3 -22.74 3 -19 3 C-19 2.34 -19 1.68 -19 1 C-12.63849395 0.34513908 -6.39628979 -0.12068471 0 0 Z " fill="#454545" transform="translate(353,180)"/>
<path d="M0 0 C0 0.66 0 1.32 0 2 C-5.625 5 -5.625 5 -9 5 C-9 5.66 -9 6.32 -9 7 C-11.97 7.66 -14.94 8.32 -18 9 C-17.67 6.36 -17.34 3.72 -17 1 C-16.67 1 -16.34 1 -16 1 C-15.67 2.65 -15.34 4.3 -15 6 C-13.39414507 5.37935063 -11.79037383 4.7533082 -10.1875 4.125 C-9.29417969 3.77695312 -8.40085937 3.42890625 -7.48046875 3.0703125 C-0.3649635 0 -0.3649635 0 0 0 Z " fill="#B1B1B1" transform="translate(341,336)"/>
<path d="M0 0 C8.41442956 0.35161161 16.06159801 1.09169144 24 4 C24 4.33 24 4.66 24 5 C21.8537974 4.85970581 19.70803782 4.71261836 17.5625 4.5625 C16.36753906 4.48128906 15.17257813 4.40007812 13.94140625 4.31640625 C11 4 11 4 10 3 C8.31816052 2.76712992 6.6287584 2.58735834 4.9375 2.4375 C3.55884766 2.31181641 3.55884766 2.31181641 2.15234375 2.18359375 C1.08693359 2.09271484 1.08693359 2.09271484 0 2 C0 1.34 0 0.68 0 0 Z " fill="#707070" transform="translate(106,145)"/>
<path d="M0 0 C2.97 0.495 2.97 0.495 6 1 C6.33 1.99 6.66 2.98 7 4 C5.68 4 4.36 4 3 4 C3 6.64 3 9.28 3 12 C2.690625 11.360625 2.38125 10.72125 2.0625 10.0625 C1.1654837 8.06389179 1.1654837 8.06389179 0 7 C-0.04092937 4.66702567 -0.04241723 2.33294775 0 0 Z " fill="#4F4F4F" transform="translate(326,258)"/>
<path d="M0 0 C3.16115776 1.36983503 3.9927092 1.9890638 6 5 C5.8125 7.125 5.8125 7.125 5 9 C4.01 9.33 3.02 9.66 2 10 C2 10.66 2 11.32 2 12 C-1 14 -1 14 -3.1875 13.625 C-3.785625 13.41875 -4.38375 13.2125 -5 13 C-4.34 12.34 -3.68 11.68 -3 11 C-2.01 11 -1.02 11 0 11 C0 10.34 0 9.68 0 9 C0.99 8.67 1.98 8.34 3 8 C2.45276317 4.62537285 1.9451 2.91765 0 0 Z " fill="#8F8F8F" transform="translate(372,299)"/>
<path d="M0 0 C2.97 0 5.94 0 9 0 C8.01 0.33 7.02 0.66 6 1 C6 1.66 6 2.32 6 3 C0.06 3.33 -5.88 3.66 -12 4 C-8.79619983 1.86413322 -7.98060033 1.76867825 -4.3125 1.875 C-3.10013672 1.90207031 -3.10013672 1.90207031 -1.86328125 1.9296875 C-0.94095703 1.96449219 -0.94095703 1.96449219 0 2 C0 1.34 0 0.68 0 0 Z " fill="#AAAAAA" transform="translate(378,175)"/>
<path d="M0 0 C2.875 -0.125 2.875 -0.125 6 0 C6.66 0.66 7.32 1.32 8 2 C2.87080814 4.10428384 -1.5610835 4.21755666 -7 4 C-6.67 3.34 -6.34 2.68 -6 2 C-4.02 2 -2.04 2 0 2 C0 1.34 0 0.68 0 0 Z " fill="#DFDFDF" transform="translate(341,150)"/>
<path d="M0 0 C4.31931387 0.61611835 8.25208775 1.64238578 12.375 3.0625 C13.43460938 3.42472656 14.49421875 3.78695312 15.5859375 4.16015625 C16.38257813 4.43730469 17.17921875 4.71445313 18 5 C18 5.66 18 6.32 18 7 C15.03 6.67 12.06 6.34 9 6 C9 5.34 9 4.68 9 4 C7.68 4 6.36 4 5 4 C5 3.34 5 2.68 5 2 C3.35 1.67 1.7 1.34 0 1 C0 0.67 0 0.34 0 0 Z " fill="#909090" transform="translate(128,104)"/>
<path d="M0 0 C0.66 0 1.32 0 2 0 C1.58846263 4.97093824 1.20399168 9.44508386 -1 14 C-2.32 14 -3.64 14 -5 14 C-5 14.66 -5 15.32 -5 16 C-6.32 15.67 -7.64 15.34 -9 15 C-8.67 14.34 -8.34 13.68 -8 13 C-6.02 12.67 -4.04 12.34 -2 12 C-1.34 8.04 -0.68 4.08 0 0 Z " fill="#9F9F9F" transform="translate(197,278)"/>
<path d="M0 0 C2.97 0.495 2.97 0.495 6 1 C6 1.66 6 2.32 6 3 C6.99 3 7.98 3 9 3 C9 3.99 9 4.98 9 6 C6.75 6.25 6.75 6.25 4 6 C1.6875 4.125 1.6875 4.125 0 2 C0 1.34 0 0.68 0 0 Z " fill="#B1B1B1" transform="translate(228,184)"/>
<path d="M0 0 C2 1 2 1 2.625 2.625 C3.12095645 5.7660575 3.06103811 8.82601831 3 12 C2.01 12 1.02 12 0 12 C-0.12375 12.61875 -0.2475 13.2375 -0.375 13.875 C-1 16 -1 16 -3 18 C-3 16.35 -3 14.7 -3 13 C-2.34 13 -1.68 13 -1 13 C-0.67 12.01 -0.34 11.02 0 10 C0.66 10 1.32 10 2 10 C1.34 6.7 0.68 3.4 0 0 Z " fill="#818181" transform="translate(286,275)"/>
<path d="M0 0 C3.3 0.66 6.6 1.32 10 2 C6 3 6 3 4 3 C3.67 3.66 3.34 4.32 3 5 C0.36 4.67 -2.28 4.34 -5 4 C-5 3.67 -5 3.34 -5 3 C-3.35 3 -1.7 3 0 3 C0 2.01 0 1.02 0 0 Z " fill="#DBDBDB" transform="translate(127,144)"/>
<path d="M0 0 C2.31 0.33 4.62 0.66 7 1 C7 1.66 7 2.32 7 3 C8.051875 2.938125 8.051875 2.938125 9.125 2.875 C12.38371628 3.01668332 14.9559947 3.86734686 18 5 C18 5.66 18 6.32 18 7 C12.71746819 6.55232781 9.45596017 6.0107839 5 3 C3.34630643 2.30177383 1.68272986 1.62501395 0 1 C0 0.67 0 0.34 0 0 Z " fill="#A6A6A6" transform="translate(35,72)"/>
<path d="M0 0 C-2.77753377 1.44558008 -5.54539908 2.65035413 -8.5 3.6875 C-9.2528125 3.95949219 -10.005625 4.23148438 -10.78125 4.51171875 C-13.23597493 5.0519311 -14.64423338 4.79774824 -17 4 C-16.34 4 -15.68 4 -15 4 C-15 3.34 -15 2.68 -15 2 C-9.92523206 0.73694665 -5.27203646 -0.27036084 0 0 Z " fill="#5D5D5D" transform="translate(392,137)"/>
<path d="M0 0 C-0.95712891 0.19916016 -0.95712891 0.19916016 -1.93359375 0.40234375 C-3.17302734 0.66724609 -3.17302734 0.66724609 -4.4375 0.9375 C-5.26121094 1.11152344 -6.08492188 1.28554687 -6.93359375 1.46484375 C-8.97661204 1.80752994 -8.97661204 1.80752994 -10 3 C-12.67058851 3.14115161 -15.32432238 3.04247107 -18 3 C-18 2.67 -18 2.34 -18 2 C-12.10607219 -0.21022293 -6.18900519 -1.82919487 0 0 Z " fill="#686868" transform="translate(361,151)"/>
<path d="M0 0 C0.99 0.33 1.98 0.66 3 1 C2.67 6.28 2.34 11.56 2 17 C1.67 17 1.34 17 1 17 C0.67 11.39 0.34 5.78 0 0 Z " fill="#CECECE" transform="translate(157,392)"/>
<path d="M0 0 C1 2 1 2 0.375 4.4375 C-1.27706844 7.51635481 -2.91798591 8.45899296 -6 10 C-4.125 5.25 -4.125 5.25 -3 3 C-2.34 3 -1.68 3 -1 3 C-0.67 2.01 -0.34 1.02 0 0 Z " fill="#A2A2A2" transform="translate(445,106)"/>
<path d="M0 0 C0.33 0.99 0.66 1.98 1 3 C1.66 3 2.32 3 3 3 C3 4.65 3 6.3 3 8 C1.02 8.66 -0.96 9.32 -3 10 C-2.34 9.01 -1.68 8.02 -1 7 C-0.60612212 4.67612053 -0.26513915 2.34206251 0 0 Z " fill="#969696" transform="translate(337,282)"/>
<path d="M0 0 C2 1 2 1 2.88671875 3.65234375 C3.15097656 4.73644531 3.41523438 5.82054687 3.6875 6.9375 C3.95949219 8.01902344 4.23148437 9.10054687 4.51171875 10.21484375 C5 13 5 13 4 15 C1.0554321 10.00703705 0.36504064 5.66442374 0 0 Z " fill="#9D9D9D" transform="translate(296,232)"/>
<path d="M0 0 C3.63 0.66 7.26 1.32 11 2 C7.29847322 2.92538169 6.36541838 3.08174162 3 2 C3.33 3.32 3.66 4.64 4 6 C2 4.6875 2 4.6875 0 3 C0 2.01 0 1.02 0 0 Z " fill="#464646" transform="translate(74,139)"/>
<path d="M0 0 C0.33 0.66 0.66 1.32 1 2 C0.0625 4.625 0.0625 4.625 -1 7 C-3.97 7 -6.94 7 -10 7 C-10 6.67 -10 6.34 -10 6 C-9.030625 5.87625 -8.06125 5.7525 -7.0625 5.625 C-6.051875 5.41875 -5.04125 5.2125 -4 5 C-3.67 4.34 -3.34 3.68 -3 3 C-2.34 3 -1.68 3 -1 3 C-0.67 2.01 -0.34 1.02 0 0 Z " fill="#8C8C8C" transform="translate(401,167)"/>
<path d="M0 0 C1.4800841 0.11362262 2.95910074 0.24122908 4.4375 0.375 C5.26121094 0.44460937 6.08492187 0.51421875 6.93359375 0.5859375 C7.95646484 0.79089844 7.95646484 0.79089844 9 1 C9.33 1.66 9.66 2.32 10 3 C7.36 2.67 4.72 2.34 2 2 C2.33 3.32 2.66 4.64 3 6 C1.5 4.6875 1.5 4.6875 0 3 C0 2.01 0 1.02 0 0 Z " fill="#3E3E3E" transform="translate(26,71)"/>
<path d="M0 0 C1.2065625 0.0309375 1.2065625 0.0309375 2.4375 0.0625 C1.27607315 4.41785069 0.36050495 6.70869703 -3.5625 9.0625 C-3.253125 8.464375 -2.94375 7.86625 -2.625 7.25 C-1.46040296 4.97293228 -1.46040296 4.97293228 -0.5625 2.0625 C-1.5525 1.7325 -2.5425 1.4025 -3.5625 1.0625 C-2.5625 0.0625 -2.5625 0.0625 0 0 Z " fill="#676767" transform="translate(469.5625,68.9375)"/>
<path d="M0 0 C0.33 0 0.66 0 1 0 C1.04125 0.7425 1.0825 1.485 1.125 2.25 C2.34857383 6.09551776 4.59346582 7.04305483 8 9 C7.01 9.495 7.01 9.495 6 10 C3.96855359 9.06553465 1.96466413 8.06775224 0 7 C0 4.69 0 2.38 0 0 Z " fill="#4F4F4F" transform="translate(122,305)"/>
<path d="M0 0 C2.64 0 5.28 0 8 0 C8 0.33 8 0.66 8 1 C6.35 1 4.7 1 3 1 C3 1.66 3 2.32 3 3 C-1.455 3.495 -1.455 3.495 -6 4 C-3 2 -3 2 0 2 C0 1.34 0 0.68 0 0 Z " fill="#8F8F8F" transform="translate(351,146)"/>
<path d="M0 0 C5.19591612 0.44033187 8.66335081 0.88303339 13 4 C10.3333581 5.33332095 8.83319697 4.67102033 6 4 C6 3.34 6 2.68 6 2 C3.03 1.505 3.03 1.505 0 1 C0 0.67 0 0.34 0 0 Z " fill="#8B8B8B" transform="translate(147,111)"/>
<path d="M0 0 C1.32 0 2.64 0 4 0 C4 0.66 4 1.32 4 2 C5.32 2.33 6.64 2.66 8 3 C8 4.32 8 5.64 8 7 C7.34 7 6.68 7 6 7 C5.938125 6.38125 5.87625 5.7625 5.8125 5.125 C5.171081 2.72238859 5.171081 2.72238859 2.4375 1.75 C1.633125 1.5025 0.82875 1.255 0 1 C0 0.67 0 0.34 0 0 Z " fill="#5A5A5A" transform="translate(330,311)"/>
<path d="M0 0 C-3.6441774 2.4294516 -5.71241272 2.16179575 -10 2 C-10 1.34 -10 0.68 -10 0 C-6.33694766 -0.74926071 -3.57644848 -1.2380014 0 0 Z " fill="#C3C3C3" transform="translate(332,155)"/>
<path d="M0 0 C0.33 1.32 0.66 2.64 1 4 C-0.65 5.32 -2.3 6.64 -4 8 C-4.33 7.34 -4.66 6.68 -5 6 C-4.67 5.34 -4.34 4.68 -4 4 C-3.34 4 -2.68 4 -2 4 C-1.34 2.68 -0.68 1.36 0 0 Z " fill="#5D5D5D" transform="translate(294,147)"/>
<path d="M0 0 C1.32 0.33 2.64 0.66 4 1 C4 3.64 4 6.28 4 9 C2 8 2 8 1.3671875 6.15234375 C1.20476562 5.42144531 1.04234375 4.69054687 0.875 3.9375 C0.70742187 3.20402344 0.53984375 2.47054687 0.3671875 1.71484375 C0.24601562 1.14894531 0.12484375 0.58304688 0 0 Z " fill="#232323" transform="translate(77,141)"/>
<path d="M0 0 C-1.32 0.33 -2.64 0.66 -4 1 C-4 1.66 -4 2.32 -4 3 C-6.31 3.33 -8.62 3.66 -11 4 C-7.9178096 0.4611888 -4.70112403 -2.35056201 0 0 Z " fill="#585858" transform="translate(437,82)"/>
<path d="M0 0 C0.66 0 1.32 0 2 0 C2 0.99 2 1.98 2 3 C-1.33333333 4.33333333 -4.66666667 5.66666667 -8 7 C-8 6.34 -8 5.68 -8 5 C-6.20963542 3.99088542 -4.41927083 2.98177083 -2.62890625 1.97265625 C-1.02121854 1.1027487 -1.02121854 1.1027487 0 0 Z " fill="#878787" transform="translate(365,313)"/>
<path d="M0 0 C1.32 0 2.64 0 4 0 C4 0.99 4 1.98 4 3 C3.34 3 2.68 3 2 3 C2 3.99 2 4.98 2 6 C1.34 5.67 0.68 5.34 0 5 C0.33 4.34 0.66 3.68 1 3 C-0.32 2.67 -1.64 2.34 -3 2 C-2.01 2 -1.02 2 0 2 C0 1.34 0 0.68 0 0 Z " fill="#6D6D6D" transform="translate(267,183)"/>
<path d="M0 0 C3.3 0.33 6.6 0.66 10 1 C10 1.33 10 1.66 10 2 C7.36 2 4.72 2 2 2 C1.67 2.66 1.34 3.32 1 4 C0.67 2.68 0.34 1.36 0 0 Z " fill="#3A3A3A" transform="translate(107,184)"/>
<path d="M0 0 C0.33 0 0.66 0 1 0 C1.185625 1.2065625 1.185625 1.2065625 1.375 2.4375 C1.58125 3.283125 1.7875 4.12875 2 5 C2.66 5.33 3.32 5.66 4 6 C2.35 6.66 0.7 7.32 -1 8 C-0.67 5.36 -0.34 2.72 0 0 Z " fill="#5B5B5B" transform="translate(324,337)"/>
<path d="M0 0 C0.33 0.66 0.66 1.32 1 2 C0.67 2.66 0.34 3.32 0 4 C-2.32156597 4.40729228 -4.6568787 4.74438677 -7 5 C-6.01 4.67 -5.02 4.34 -4 4 C-3.67 3.01 -3.34 2.02 -3 1 C-2.01 0.67 -1.02 0.34 0 0 Z " fill="#5B5B5B" transform="translate(254,179)"/>
</svg>
